<svg width="24" height="24" viewBox="0 0 24 24" fill="none" xmlns="http://www.w3.org/2000/svg">
<path d="M9 22H15C20 22 22 20 22 15V9C22 4 20 2 15 2H9C4 2 2 4 2 9V15C2 20 4 22 9 22Z" stroke="#292D32" stroke-width="1.5" stroke-linecap="round" stroke-linejoin="round"/>
<path d="M18.3772 15.2712V7.58121C18.3772 6.81121 17.7572 6.25122 16.9972 6.31122H16.9572C15.6172 6.42122 13.5872 7.11123 12.4472 7.82123L12.3372 7.89124C12.1572 8.00124 11.8472 8.00124 11.6572 7.89124L11.4972 7.79123C10.3672 7.08123 8.33719 6.41121 6.99719 6.30121C6.23719 6.24121 5.61719 6.81123 5.61719 7.57123V15.2712C5.61719 15.8812 6.11717 16.4612 6.72717 16.5312L6.90717 16.5612C8.28717 16.7412 10.4272 17.4512 11.6472 18.1212L11.6772 18.1312C11.8472 18.2312 12.1272 18.2312 12.2872 18.1312C13.5072 17.4512 15.6572 16.7512 17.0472 16.5612L17.2572 16.5312C17.8772 16.4612 18.3772 15.8912 18.3772 15.2712Z" stroke="#292D32" stroke-width="1.5" stroke-linecap="round" stroke-linejoin="round"/>
<path d="M12 8.10156V17.6616" stroke="#292D32" stroke-width="1.5" stroke-linecap="round" stroke-linejoin="round"/>
</svg>
