<svg width="55" height="53" viewBox="0 0 55 53" fill="none" xmlns="http://www.w3.org/2000/svg">
<path opacity="0.21" fill-rule="evenodd" clip-rule="evenodd" d="M0 26.5V30C0 42.7025 10.2975 53 23 53H27.5H32C44.7025 53 55 42.7025 55 30V26.5V23C55 10.2975 44.7025 0 32 0H27.5H23C10.2975 0 0 10.2975 0 23V26.5Z" fill="#8280FF"/>
<path opacity="0.587821" fill-rule="evenodd" clip-rule="evenodd" d="M18.9375 20.6135C18.9375 23.2153 21.1263 25.3246 23.8264 25.3246C26.5264 25.3246 28.7153 23.2153 28.7153 20.6135C28.7153 18.0116 26.5264 15.9023 23.8264 15.9023C21.1263 15.9023 18.9375 18.0116 18.9375 20.6135ZM31.1621 25.3257C31.1621 27.2771 32.8037 28.859 34.8288 28.859C36.8538 28.859 38.4954 27.2771 38.4954 25.3257C38.4954 23.3743 36.8538 21.7924 34.8288 21.7924C32.8037 21.7924 31.1621 23.3743 31.1621 25.3257Z" fill="#8280FF"/>
<path fill-rule="evenodd" clip-rule="evenodd" d="M23.8078 27.6797C18.0371 27.6797 13.3027 30.5376 12.8289 36.1588C12.8031 36.4649 13.4108 37.1019 13.7173 37.1019H33.9074C34.8256 37.1019 34.8398 36.3899 34.8256 36.1597C34.4674 30.3806 29.6596 27.6797 23.8078 27.6797ZM41.4967 37.1012H36.7882L36.7882 37.0989C36.7882 34.4489 35.8799 32.0033 34.3471 30.0354C38.5078 30.0811 41.9041 32.1097 42.1598 36.3946C42.1701 36.5672 42.1598 37.1012 41.4967 37.1012Z" fill="#8280FF"/>
</svg>
