<svg width="55" height="53" viewBox="0 0 55 53" fill="none" xmlns="http://www.w3.org/2000/svg">
<path opacity="0.21" fill-rule="evenodd" clip-rule="evenodd" d="M0 26.5V30C0 42.7025 10.2975 53 23 53H27.5H32C44.7025 53 55 42.7025 55 30V26.5V23C55 10.2975 44.7025 0 32 0H27.5H23C10.2975 0 0 10.2975 0 23V26.5Z" fill="#5E77FF"/>
<g clip-path="url(#clip0_823_56260)">
<g clip-path="url(#clip1_823_56260)">
<g clip-path="url(#clip2_823_56260)">
<path d="M17.6139 36.5456H39.4113C39.478 36.5456 39.5427 36.5361 39.6048 36.5213C39.6098 36.5213 39.6139 36.5221 39.6188 36.5221C40.0841 36.5221 40.4622 36.1445 40.4622 35.6788V11.8433C40.4622 11.3778 40.0841 11 39.6188 11H39.413H18.9626H17.615C15.3703 11 13.5445 12.8263 13.5445 15.0704C13.5445 15.1005 13.5504 15.129 13.5533 15.1581C13.5504 17.2311 13.5247 36.2792 13.5504 38.7833C13.5488 38.8322 13.5428 38.88 13.5428 38.9295C13.5428 41.0873 15.2324 42.8538 17.3576 42.9873C17.4003 42.9939 17.4421 43.0001 17.4863 43.0001H39.6188C40.0841 43.0001 40.4621 42.6225 40.4621 42.1567V38.9823C40.4621 38.5169 40.084 38.139 39.6188 38.139C39.1535 38.139 38.7754 38.517 38.7754 38.9823V41.3135H17.6139C16.3323 41.3135 15.2862 40.296 15.2348 39.0272C15.236 39.0045 15.2401 38.9831 15.2397 38.9601C15.2389 38.923 15.2376 38.8654 15.2368 38.7888C15.3105 37.54 16.3469 36.5456 17.6139 36.5456ZM18.1889 15.0704C18.1889 14.6049 18.5667 14.227 19.0322 14.227C19.4978 14.227 19.8756 14.6049 19.8756 15.0704V32.2008C19.8756 32.6661 19.4978 33.0441 19.0322 33.0441C18.5667 33.0441 18.1889 32.666 18.1889 32.2008V15.0704Z" fill="#3749A6"/>
</g>
</g>
</g>
<defs>
<clipPath id="clip0_823_56260">
<rect width="32" height="32" fill="white" transform="translate(11 11)"/>
</clipPath>
<clipPath id="clip1_823_56260">
<rect width="32" height="32" fill="white" transform="translate(11 11)"/>
</clipPath>
<clipPath id="clip2_823_56260">
<rect width="26.9231" height="32.0001" fill="white" transform="translate(13.5391 11)"/>
</clipPath>
</defs>
</svg>
