<svg width="55" height="53" viewBox="0 0 55 53" fill="none" xmlns="http://www.w3.org/2000/svg">
<path opacity="0.21" fill-rule="evenodd" clip-rule="evenodd" d="M0 26.5V30C0 42.7025 10.2975 53 23 53H27.5H32C44.7025 53 55 42.7025 55 30V26.5V23C55 10.2975 44.7025 0 32 0H27.5H23C10.2975 0 0 10.2975 0 23V26.5Z" fill="#FEC53D"/>
<path fill-rule="evenodd" clip-rule="evenodd" d="M12 39.75C12 41.8213 13.6788 43.5 15.75 43.5H38.25C40.3212 43.5 42 41.8213 42 39.75C42 36.8325 42 32.0625 42 29.3363C42 27.5238 40.7038 25.9713 38.9213 25.6475C36.2788 25.1663 31.7225 24.3375 29.145 23.87C27.7263 23.6112 26.2737 23.6112 24.855 23.87C22.2775 24.3375 17.7212 25.1663 15.0787 25.6475C13.2962 25.9713 12 27.5238 12 29.3363V39.75ZM29.885 26.545L31.7612 33.6788C32.0075 34.615 31.6775 35.6088 30.92 36.2138C30.28 36.7238 29.2713 37.5288 28.5713 38.0888C27.6525 38.8213 26.3475 38.8213 25.4287 38.0888C24.7287 37.5288 23.72 36.7238 23.08 36.2138C22.3225 35.6088 21.9925 34.615 22.2388 33.6788L24.115 26.545L15.5262 28.1062C14.9325 28.215 14.5 28.7325 14.5 29.3363V39.75C14.5 40.44 15.06 41 15.75 41C20.98 41 33.02 41 38.25 41C38.94 41 39.5 40.44 39.5 39.75C39.5 36.8325 39.5 32.0625 39.5 29.3363C39.5 28.7325 39.0675 28.215 38.4738 28.1062L29.885 26.545ZM27.2038 26.1788C27.0675 26.175 26.9325 26.175 26.7962 26.1788L24.6663 34.2812L26.9887 36.1337C26.995 36.14 27.005 36.14 27.0113 36.1337L29.3337 34.2812L27.2038 26.1788ZM27 6C22.5163 6 18.875 9.64125 18.875 14.125C18.875 18.6087 22.5163 22.25 27 22.25C31.4837 22.25 35.125 18.6087 35.125 14.125C35.125 9.64125 31.4837 6 27 6ZM27 8.5C30.105 8.5 32.625 11.02 32.625 14.125C32.625 17.23 30.105 19.75 27 19.75C23.895 19.75 21.375 17.23 21.375 14.125C21.375 11.02 23.895 8.5 27 8.5Z" fill="#F1963A"/>
</svg>
