<svg width="55" height="53" viewBox="0 0 55 53" fill="none" xmlns="http://www.w3.org/2000/svg">
<path opacity="0.21" fill-rule="evenodd" clip-rule="evenodd" d="M0 26.5V30C0 42.7025 10.2975 53 23 53H27.5H32C44.7025 53 55 42.7025 55 30V26.5V23C55 10.2975 44.7025 0 32 0H27.5H23C10.2975 0 0 10.2975 0 23V26.5Z" fill="#4379EE"/>
<g clip-path="url(#clip0_823_56261)">
<path fill-rule="evenodd" clip-rule="evenodd" d="M25.9288 44.75H16.75C14.6788 44.75 13 43.0713 13 41V30.5863C13 28.7738 14.2962 27.2213 16.0787 26.8975C18.7212 26.4163 23.2775 25.5875 25.855 25.12C27.2737 24.8612 28.7263 24.8612 30.145 25.12C32.7225 25.5875 37.2788 26.4163 39.9213 26.8975C41.7038 27.2213 43 28.7738 43 30.5863C43 33.3125 43 38.0825 43 41C43 43.0713 41.3212 44.75 39.25 44.75H25.9288ZM37.785 29.05L37.79 29.0563C38.0088 29.3838 38.06 29.795 37.9287 30.1662L37.0462 32.6662C36.9312 32.9925 36.685 33.2575 36.3675 33.3963L34.7075 34.12L35.3675 35.4412C35.5525 35.81 35.5425 36.2462 35.3425 36.6075L32.2075 42.25H39.25C39.94 42.25 40.5 41.69 40.5 41C40.5 38.0825 40.5 33.3125 40.5 30.5863C40.5 29.9825 40.0675 29.465 39.4738 29.3562L37.785 29.05ZM34.3663 28.4275L29.6975 27.5788C28.575 27.375 27.425 27.375 26.3025 27.5788L21.6337 28.4275L20.6363 29.9238L21.13 31.3213L23.5 32.3537C23.8138 32.4912 24.0575 32.7512 24.175 33.0737C24.2925 33.3962 24.2712 33.7525 24.1175 34.0588L23.1625 35.9688L26.6525 42.25H29.3475L32.8375 35.9688L31.8825 34.0588C31.7288 33.7525 31.7075 33.3962 31.825 33.0737C31.9425 32.7512 32.1862 32.4912 32.5 32.3537L34.87 31.3213L35.3638 29.9238L34.3663 28.4275ZM18.215 29.05L16.5262 29.3562C15.9325 29.465 15.5 29.9825 15.5 30.5863V41C15.5 41.69 16.06 42.25 16.75 42.25H23.7925L20.6575 36.6075C20.4575 36.2462 20.4475 35.81 20.6325 35.4412L21.2925 34.12L19.6325 33.3963C19.315 33.2575 19.0688 32.9925 18.9538 32.6662L18.0712 30.1662C17.94 29.795 17.9912 29.3838 18.21 29.0563L18.215 29.05ZM36.75 36V38.5C36.75 39.19 37.31 39.75 38 39.75C38.69 39.75 39.25 39.19 39.25 38.5V36C39.25 35.31 38.69 34.75 38 34.75C37.31 34.75 36.75 35.31 36.75 36ZM28 7.25C23.5163 7.25 19.875 10.8913 19.875 15.375C19.875 19.8587 23.5163 23.5 28 23.5C32.4837 23.5 36.125 19.8587 36.125 15.375C36.125 10.8913 32.4837 7.25 28 7.25ZM28 9.75C31.105 9.75 33.625 12.27 33.625 15.375C33.625 18.48 31.105 21 28 21C24.895 21 22.375 18.48 22.375 15.375C22.375 12.27 24.895 9.75 28 9.75Z" fill="#4379EE"/>
</g>
<defs>
<clipPath id="clip0_823_56261">
<rect width="40" height="40" fill="white" transform="translate(8 6)"/>
</clipPath>
</defs>
</svg>
