<svg width="24" height="25" viewBox="0 0 24 25" fill="none" xmlns="http://www.w3.org/2000/svg">
<path d="M11.999 7.39648C10.7726 7.39648 9.59651 7.88365 8.72934 8.75082C7.86217 9.61799 7.375 10.7941 7.375 12.0205C7.375 13.2468 7.86217 14.423 8.72934 15.2901C9.59651 16.1573 10.7726 16.6445 11.999 16.6445C13.2254 16.6445 14.4015 16.1573 15.2687 15.2901C16.1358 14.423 16.623 13.2468 16.623 12.0205C16.623 10.7941 16.1358 9.61799 15.2687 8.75082C14.4015 7.88365 13.2254 7.39648 11.999 7.39648ZM11.999 15.0235C11.2023 15.0235 10.4382 14.707 9.87485 14.1436C9.31149 13.5803 8.995 12.8162 8.995 12.0195C8.995 11.2228 9.31149 10.4587 9.87485 9.89534C10.4382 9.33198 11.2023 9.01548 11.999 9.01548C12.7957 9.01548 13.5598 9.33198 14.1231 9.89534C14.6865 10.4587 15.003 11.2228 15.003 12.0195C15.003 12.8162 14.6865 13.5803 14.1231 14.1436C13.5598 14.707 12.7957 15.0235 11.999 15.0235Z" fill="#252525"/>
<path d="M16.8065 8.30444C17.4019 8.30444 17.8845 7.8218 17.8845 7.22644C17.8845 6.63107 17.4019 6.14844 16.8065 6.14844C16.2112 6.14844 15.7285 6.63107 15.7285 7.22644C15.7285 7.8218 16.2112 8.30444 16.8065 8.30444Z" fill="#252525"/>
<path d="M20.533 6.13041C20.3015 5.53259 19.9477 4.9897 19.4943 4.53647C19.0409 4.08325 18.4979 3.72969 17.9 3.49841C17.2003 3.23577 16.4611 3.09376 15.714 3.07841C14.751 3.03641 14.446 3.02441 12.004 3.02441C9.56195 3.02441 9.24895 3.02441 8.29395 3.07841C7.54734 3.09297 6.80871 3.23502 6.10995 3.49841C5.51189 3.72942 4.96872 4.08288 4.51529 4.53614C4.06186 4.9894 3.70818 5.53244 3.47695 6.13041C3.21426 6.83003 3.07257 7.56925 3.05795 8.31641C3.01495 9.27841 3.00195 9.58341 3.00195 12.0264C3.00195 14.4684 3.00195 14.7794 3.05795 15.7364C3.07295 16.4844 3.21395 17.2224 3.47695 17.9234C3.70883 18.5212 4.06285 19.064 4.51639 19.5172C4.96993 19.9704 5.51302 20.324 6.11095 20.5554C6.80839 20.8286 7.54732 20.9808 8.29595 21.0054C9.25895 21.0474 9.56395 21.0604 12.006 21.0604C14.448 21.0604 14.761 21.0604 15.716 21.0054C16.4631 20.9902 17.2022 20.8485 17.902 20.5864C18.4997 20.3546 19.0426 20.0007 19.4959 19.5474C19.9493 19.094 20.3031 18.5512 20.535 17.9534C20.798 17.2534 20.939 16.5154 20.954 15.7674C20.997 14.8054 21.01 14.5004 21.01 12.0574C21.01 9.61441 21.01 9.30441 20.954 8.34741C20.9423 7.58969 20.7999 6.83966 20.533 6.13041ZM19.315 15.6624C19.3085 16.2387 19.2033 16.8097 19.004 17.3504C18.8538 17.7393 18.6239 18.0924 18.329 18.3871C18.0342 18.6818 17.6809 18.9115 17.292 19.0614C16.7572 19.2599 16.1923 19.3651 15.622 19.3724C14.672 19.4164 14.404 19.4274 11.968 19.4274C9.52995 19.4274 9.28095 19.4274 8.31295 19.3724C7.74288 19.3654 7.17828 19.2602 6.64395 19.0614C6.25364 18.9124 5.89895 18.6831 5.60284 18.3884C5.30673 18.0936 5.07579 17.74 4.92495 17.3504C4.7284 16.8155 4.62326 16.2513 4.61395 15.6814C4.57095 14.7314 4.56095 14.4634 4.56095 12.0274C4.56095 9.59041 4.56095 9.34141 4.61395 8.37241C4.62042 7.79644 4.72561 7.22583 4.92495 6.68541C5.22995 5.89641 5.85495 5.27541 6.64395 4.97341C7.17854 4.77555 7.74298 4.67038 8.31295 4.66241C9.26395 4.61941 9.53095 4.60741 11.968 4.60741C14.405 4.60741 14.655 4.60741 15.622 4.66241C16.1924 4.66928 16.7573 4.77449 17.292 4.97341C17.6809 5.12369 18.0341 5.35362 18.3289 5.64844C18.6238 5.94327 18.8537 6.29649 19.004 6.68541C19.2005 7.22036 19.3056 7.78457 19.315 8.35441C19.358 9.30541 19.369 9.57241 19.369 12.0094C19.369 14.4454 19.369 14.7074 19.326 15.6634H19.315V15.6624Z" fill="#252525"/>
</svg>
