<svg width="24" height="25" viewBox="0 0 24 25" fill="none" xmlns="http://www.w3.org/2000/svg">
<path d="M4.98292 7.21633C6.19132 7.21633 7.17092 6.23673 7.17092 5.02833C7.17092 3.81993 6.19132 2.84033 4.98292 2.84033C3.77452 2.84033 2.79492 3.81993 2.79492 5.02833C2.79492 6.23673 3.77452 7.21633 4.98292 7.21633Z" fill="#252525"/>
<path d="M9.2377 8.87471V21.0137H13.0067V15.0107C13.0067 13.4267 13.3047 11.8927 15.2687 11.8927C17.2057 11.8927 17.2297 13.7037 17.2297 15.1107V21.0147H21.0007V14.3577C21.0007 11.0877 20.2967 8.57471 16.4747 8.57471C14.6397 8.57471 13.4097 9.58171 12.9067 10.5347H12.8557V8.87471H9.2377ZM3.0957 8.87471H6.8707V21.0137H3.0957V8.87471Z" fill="#252525"/>
</svg>
