<svg width="24" height="25" viewBox="0 0 24 25" fill="none" xmlns="http://www.w3.org/2000/svg">
<path d="M19.633 8.01657C19.646 8.19158 19.646 8.36558 19.646 8.53958C19.646 13.8646 15.593 20.0006 8.186 20.0006C5.904 20.0006 3.784 19.3396 2 18.1916C2.324 18.2286 2.636 18.2416 2.973 18.2416C4.78599 18.246 6.54765 17.6397 7.974 16.5206C7.13342 16.5054 6.31858 16.228 5.64324 15.7273C4.9679 15.2266 4.46578 14.5275 4.207 13.7276C4.456 13.7646 4.706 13.7896 4.968 13.7896C5.329 13.7896 5.692 13.7396 6.029 13.6526C5.11676 13.4684 4.29647 12.9739 3.70762 12.2533C3.11876 11.5326 2.79769 10.6302 2.799 9.69957V9.64957C3.336 9.94857 3.959 10.1356 4.619 10.1606C4.06609 9.79316 3.61272 9.2946 3.29934 8.70937C2.98596 8.12413 2.82231 7.47043 2.823 6.80657C2.823 6.05857 3.022 5.37257 3.371 4.77457C4.38314 6.01959 5.6455 7.03814 7.07634 7.76423C8.50717 8.49033 10.0746 8.90779 11.677 8.98957C11.615 8.68957 11.577 8.37857 11.577 8.06657C11.5767 7.53754 11.6807 7.01363 11.8831 6.52481C12.0854 6.036 12.3821 5.59185 12.7562 5.21776C13.1303 4.84368 13.5744 4.54699 14.0632 4.34465C14.5521 4.14232 15.076 4.03831 15.605 4.03857C16.765 4.03857 17.812 4.52457 18.548 5.31057C19.4498 5.13619 20.3145 4.807 21.104 4.33757C20.8034 5.26839 20.1738 6.05768 19.333 6.55757C20.1328 6.46635 20.9144 6.25603 21.652 5.93357C21.1011 6.73667 20.4185 7.44092 19.633 8.01657Z" fill="#252525"/>
</svg>
