<svg width="53" height="53" viewBox="0 0 53 53" fill="none" xmlns="http://www.w3.org/2000/svg">
<path d="M26.5 5.5C38.0789 5.5 47.5 14.9211 47.5 26.5C47.5 38.0789 38.0789 47.5 26.5 47.5C14.9211 47.5 5.5 38.0789 5.5 26.5C5.5 14.9211 14.9211 5.5 26.5 5.5ZM26.5 0.25C12.0021 0.25 0.25 12.0021 0.25 26.5C0.25 40.9979 12.0021 52.75 26.5 52.75C40.9979 52.75 52.75 40.9979 52.75 26.5C52.75 12.0021 40.9979 0.25 26.5 0.25ZM39.625 23.875H29.125V13.375H23.875V23.875H13.375V29.125H23.875V39.625H29.125V29.125H39.625V23.875Z" fill="black" fill-opacity="0.25"/>
</svg>
