<svg width="50" height="50" viewBox="0 0 50 50" fill="none" xmlns="http://www.w3.org/2000/svg">
<path fill-rule="evenodd" clip-rule="evenodd" d="M8.96875 24.2186L15.125 30.3749C15.3553 30.5895 15.54 30.8482 15.6681 31.1357C15.7962 31.4232 15.865 31.7336 15.8706 32.0483C15.8762 32.363 15.8183 32.6755 15.7004 32.9674C15.5825 33.2592 15.4071 33.5243 15.1845 33.7469C14.9619 33.9694 14.6968 34.1449 14.405 34.2628C14.1132 34.3806 13.8006 34.4385 13.4859 34.433C13.1712 34.4274 12.8608 34.3586 12.5733 34.2305C12.2858 34.1024 12.0271 33.9177 11.8125 33.6874L1.65625 23.5311L0 21.8749L1.65625 20.2186L11.8125 10.0624C12.2568 9.64839 12.8444 9.423 13.4516 9.43371C14.0588 9.44443 14.6382 9.6904 15.0676 10.1198C15.497 10.5492 15.743 11.1286 15.7537 11.7358C15.7644 12.3429 15.539 12.9306 15.125 13.3749L8.96875 19.5311H39.8438C42.5374 19.5311 45.1206 20.6012 47.0253 22.5058C48.93 24.4105 50 26.9938 50 29.6874C50 32.381 48.93 34.9643 47.0253 36.8689C45.1206 38.7736 42.5374 39.8436 39.8438 39.8436H33.5938C32.9721 39.8436 32.376 39.5967 31.9365 39.1572C31.4969 38.7176 31.25 38.1215 31.25 37.4999C31.25 36.8783 31.4969 36.2821 31.9365 35.8426C32.376 35.4031 32.9721 35.1561 33.5938 35.1561H39.8438C41.2942 35.1561 42.6852 34.58 43.7107 33.5544C44.7363 32.5288 45.3125 31.1378 45.3125 29.6874C45.3125 28.237 44.7363 26.846 43.7107 25.8204C42.6852 24.7948 41.2942 24.2186 39.8438 24.2186H8.96875Z" fill="black" fill-opacity="0.6"/>
</svg>
