<svg width="24" height="24" viewBox="0 0 24 24" fill="none" xmlns="http://www.w3.org/2000/svg">
<path d="M20.99 9.71C20.65 9.57 20.2 9.5 19.64 9.5H14.36C12.62 9.5 12 10.12 12 11.88V19.62C12 20.2 12.07 20.65 12.22 21C12.53 21.72 13.19 22 14.36 22H19.64C21.38 22 22 21.37 22 19.62V11.88C22 10.69 21.72 10.02 20.99 9.71ZM18 19.75H16C15.98 19.75 15.95 19.75 15.93 19.74C15.78 19.73 15.65 19.68 15.54 19.58C15.36 19.45 15.25 19.24 15.25 19C15.25 18.59 15.59 18.25 16 18.25H18C18.41 18.25 18.75 18.59 18.75 19C18.75 19.41 18.41 19.75 18 19.75Z" fill="#BDBDBD"/>
<path d="M20.9917 6.19V7C20.9917 7.55 20.5417 8 19.9917 8H14.3617C11.8017 8 10.5017 9.31 10.5017 11.88V21C10.5017 21.55 10.0517 22 9.50172 22H7.55172C7.15172 22 6.83172 21.68 6.83172 21.29C6.83172 20.89 7.15172 20.58 7.55172 20.58H9.50172V16.75H6.00172C3.78172 16.64 2.01172 14.81 2.01172 12.56V6.19C2.01172 3.88 3.89172 2 6.21172 2H16.8017C19.1117 2 20.9917 3.88 20.9917 6.19Z" fill="#BDBDBD"/>
</svg>
