<svg width="38" height="38" viewBox="0 0 38 38" fill="none" xmlns="http://www.w3.org/2000/svg">
<g opacity="0.25">
<path d="M12.666 19.0001H25.3327M14.2493 12.6667H9.49935C7.81964 12.6667 6.20874 13.334 5.02101 14.5217C3.83328 15.7095 3.16602 17.3204 3.16602 19.0001C3.16602 20.6798 3.83328 22.2907 5.02101 23.4784C6.20874 24.6662 7.81964 25.3334 9.49935 25.3334H14.2493M23.7493 12.6667H28.4993C30.1791 12.6667 31.79 13.334 32.9777 14.5217C34.1654 15.7095 34.8327 17.3204 34.8327 19.0001C34.8327 20.6798 34.1654 22.2907 32.9777 23.4784C31.79 24.6662 30.1791 25.3334 28.4993 25.3334H23.7493" stroke="black" stroke-width="2.5" stroke-linecap="round" stroke-linejoin="round"/>
</g>
</svg>
