<svg width="47" height="47" viewBox="0 0 47 47" fill="none" xmlns="http://www.w3.org/2000/svg">
<rect width="47" height="47" rx="23.5" fill="#D4DEF7"/>
<path d="M23.5002 27.8299C20.8114 27.8299 18.6289 25.8899 18.6289 23.4999C18.6289 21.1099 20.8114 19.1699 23.5002 19.1699C26.1889 19.1699 28.3714 21.1099 28.3714 23.4999C28.3714 25.8899 26.1889 27.8299 23.5002 27.8299ZM23.5002 20.6699C21.7452 20.6699 20.3164 21.9399 20.3164 23.4999C20.3164 25.0599 21.7452 26.3299 23.5002 26.3299C25.2552 26.3299 26.6839 25.0599 26.6839 23.4999C26.6839 21.9399 25.2552 20.6699 23.5002 20.6699Z" fill="#003373"/>
<path d="M23.4998 32.52C19.2698 32.52 15.2761 30.32 12.5311 26.5C11.3386 24.85 11.3386 22.16 12.5311 20.5C15.2873 16.68 19.2811 14.48 23.4998 14.48C27.7186 14.48 31.7123 16.68 34.4573 20.5C35.6498 22.15 35.6498 24.84 34.4573 26.5C31.7123 30.32 27.7186 32.52 23.4998 32.52ZM23.4998 15.98C19.8661 15.98 16.3898 17.92 13.9598 21.31C13.1161 22.48 13.1161 24.52 13.9598 25.69C16.3898 29.08 19.8661 31.02 23.4998 31.02C27.1336 31.02 30.6098 29.08 33.0398 25.69C33.8836 24.52 33.8836 22.48 33.0398 21.31C30.6098 17.92 27.1336 15.98 23.4998 15.98Z" fill="#003373"/>
</svg>
