<svg width="23" height="22" viewBox="0 0 23 22" fill="none" xmlns="http://www.w3.org/2000/svg">
<path d="M11.0649 2.66748C8.03076 2.66748 5.56492 5.13331 5.56492 8.16748V10.8166C5.56492 11.3758 5.32659 12.2283 5.04242 12.705L3.98826 14.4558C3.33742 15.5375 3.78659 16.7383 4.97826 17.1416C8.92909 18.4616 13.1916 18.4616 17.1424 17.1416C18.2516 16.775 18.7374 15.4641 18.1324 14.4558L17.0783 12.705C16.8033 12.2283 16.5649 11.3758 16.5649 10.8166V8.16748C16.5649 5.14248 14.0899 2.66748 11.0649 2.66748Z" stroke="black" stroke-width="1.5" stroke-miterlimit="10" stroke-linecap="round"/>
<path d="M12.7608 2.93332C12.4766 2.85082 12.1833 2.78665 11.8808 2.74999C11.0008 2.63999 10.1575 2.70415 9.36914 2.93332C9.63497 2.25499 10.295 1.77832 11.065 1.77832C11.835 1.77832 12.495 2.25499 12.7608 2.93332Z" stroke="black" stroke-width="1.5" stroke-miterlimit="10" stroke-linecap="round" stroke-linejoin="round"/>
<path d="M13.8145 17.4717C13.8145 18.9842 12.577 20.2217 11.0645 20.2217C10.3128 20.2217 9.61612 19.91 9.12112 19.415C8.62612 18.92 8.31445 18.2233 8.31445 17.4717" stroke="black" stroke-width="1.5" stroke-miterlimit="10"/>
<circle cx="17.0469" cy="5" r="3.5" fill="#FF0000" stroke="#F2F4FA"/>
</svg>
