<svg width="59" height="59" viewBox="0 0 59 59" fill="none" xmlns="http://www.w3.org/2000/svg">
<rect x="1" y="1" width="44" height="45" rx="22" fill="#D4DEF6"/>
<g filter="url(#filter0_i_1244_1784)">
<path fill-rule="evenodd" clip-rule="evenodd" d="M33.494 12.2611C33.5476 12.3148 33.583 12.384 33.5949 12.459C33.743 14.2098 33.592 15.9731 33.1484 17.6732L28.1286 12.5994C29.8136 12.1604 31.5611 12.0119 33.2961 12.1601C33.371 12.1721 33.4403 12.2074 33.494 12.2611ZM20.6939 17.4573L15.8326 25.2283C15.7891 25.2974 15.7705 25.3792 15.7796 25.4604C15.7888 25.5415 15.8252 25.6171 15.883 25.6748L20.0818 29.8735C20.1151 29.9076 20.1549 29.9346 20.1988 29.9532C20.2427 29.9717 20.2898 29.9814 20.3374 29.9816C20.4054 29.982 20.4719 29.9619 20.5283 29.924L28.3244 25.041C30.5221 23.3955 32.138 21.0922 32.9373 18.4656L27.3378 12.8193C24.685 13.6169 22.357 15.2421 20.6939 17.4573Z" fill="#484848"/>
</g>
<g filter="url(#filter1_bdiii_1244_1784)">
<path d="M-nan -nanL16.5359 28.6633L14.7354 30.4638C14.7017 30.4973 14.6749 30.5371 14.6566 30.581C14.6383 30.6249 14.6289 30.6719 14.6289 30.7195C14.6289 30.767 14.6383 30.8141 14.6566 30.858C14.6749 30.9018 14.7017 30.9417 14.7354 30.9751C14.7691 31.0085 14.809 31.0349 14.8528 31.0528C14.8967 31.0708 14.9437 31.0798 14.9911 31.0796C15.0856 31.0792 15.1761 31.0417 15.2432 30.9751L17.0437 29.1746C17.0774 29.1412 17.1042 29.1013 17.1225 29.0575C17.1408 29.0136 17.1502 28.9665 17.1502 28.919C17.1502 28.8714 17.1408 28.8244 17.1225 28.7805C17.1042 28.7366 17.0774 28.6968 17.0437 28.6633C16.9762 28.5962 16.8849 28.5586 16.7898 28.5586C16.6947 28.5586 16.6034 28.5962 16.5359 28.6633L-nan -nanZ" fill="url(#paint0_linear_1244_1784)" fill-opacity="0.21"/>
<path d="M-nan -nanL16.5359 28.6633L14.7354 30.4638C14.7017 30.4973 14.6749 30.5371 14.6566 30.581C14.6383 30.6249 14.6289 30.6719 14.6289 30.7195C14.6289 30.767 14.6383 30.8141 14.6566 30.858C14.6749 30.9018 14.7017 30.9417 14.7354 30.9751C14.7691 31.0085 14.809 31.0349 14.8528 31.0528C14.8967 31.0708 14.9437 31.0798 14.9911 31.0796C15.0856 31.0792 15.1761 31.0417 15.2432 30.9751L17.0437 29.1746C17.0774 29.1412 17.1042 29.1013 17.1225 29.0575C17.1408 29.0136 17.1502 28.9665 17.1502 28.919C17.1502 28.8714 17.1408 28.8244 17.1225 28.7805C17.1042 28.7366 17.0774 28.6968 17.0437 28.6633C16.9762 28.5962 16.8849 28.5586 16.7898 28.5586C16.6947 28.5586 16.6034 28.5962 16.5359 28.6633L-nan -nanZ" fill="#151515" fill-opacity="0.1"/>
</g>
<g filter="url(#filter2_bdii_1244_1784)">
<path fill-rule="evenodd" clip-rule="evenodd" d="M16.4085 25.3944C16.4113 25.3916 16.4117 25.3873 16.4095 25.384C16.4075 25.3809 16.4077 25.3769 16.4102 25.3741C16.4417 25.3386 16.48 25.3096 16.5228 25.2889C16.5674 25.2673 16.6161 25.2551 16.6657 25.2532C16.7153 25.2513 16.7647 25.2596 16.811 25.2777C16.8572 25.2958 16.8991 25.3233 16.9342 25.3584C16.9693 25.3935 16.9968 25.4355 17.0149 25.4817C17.033 25.5279 17.0413 25.5773 17.0394 25.6269C17.0375 25.6765 17.0254 25.7252 17.0038 25.7699C16.9821 25.8145 16.9515 25.8543 16.9138 25.8865L16.1108 26.6896C16.047 26.7605 15.9576 26.8033 15.8623 26.8084C15.7911 26.8081 15.7216 26.7867 15.6625 26.7469C15.6035 26.7071 15.5576 26.6506 15.5306 26.5847C15.5036 26.5188 15.4968 26.4464 15.511 26.3766C15.5251 26.3068 15.5597 26.2428 15.6103 26.1926L16.4085 25.3944ZM12.5538 32.5772L15.0313 30.0889C15.0991 30.0197 15.1916 29.9802 15.2885 29.9792C15.3854 29.9782 15.4788 30.0157 15.548 30.0835C15.6173 30.1514 15.6567 30.2439 15.6577 30.3408C15.6588 30.4377 15.6212 30.531 15.5534 30.6003L13.0615 33.0886C12.9937 33.1559 12.902 33.1935 12.8064 33.1932C12.7108 33.1929 12.6193 33.1546 12.552 33.0868C12.4847 33.019 12.447 32.9272 12.4474 32.8316C12.4477 32.7361 12.486 32.6446 12.5538 32.5772ZM17.8723 27.488C17.8744 27.4913 17.874 27.4957 17.8712 27.4984L17.073 28.2967C17.0224 28.3468 16.9879 28.4109 16.9737 28.4806C16.9595 28.5504 16.9663 28.6229 16.9933 28.6888C17.0203 28.7547 17.0662 28.8111 17.1253 28.8509C17.1843 28.8907 17.2538 28.9122 17.3251 28.9125C17.4204 28.9073 17.5097 28.8646 17.5735 28.7936L18.3765 27.9906C18.4142 27.9583 18.4449 27.9186 18.4665 27.8739C18.4881 27.8292 18.5002 27.7806 18.5021 27.731C18.5041 27.6814 18.4957 27.6319 18.4776 27.5857C18.4595 27.5395 18.432 27.4976 18.3969 27.4625C18.3619 27.4274 18.3199 27.3999 18.2737 27.3818C18.2275 27.3637 18.178 27.3553 18.1284 27.3573C18.0788 27.3592 18.0302 27.3713 17.9855 27.3929C17.9427 27.4136 17.9044 27.4426 17.8729 27.4782C17.8705 27.4809 17.8702 27.485 17.8723 27.488ZM19.7782 28.7648C19.7808 28.7621 19.7851 28.7617 19.7882 28.7638C19.7913 28.7659 19.7955 28.7654 19.7982 28.7628C19.8655 28.6983 19.9553 28.6624 20.0487 28.6627C20.1443 28.6631 20.2358 28.7013 20.3031 28.7691C20.3704 28.837 20.4081 28.9287 20.4077 29.0243C20.4074 29.1198 20.3691 29.2114 20.3013 29.2787L19.4983 30.0817C19.4312 30.1482 19.3407 30.1857 19.2462 30.1861C19.1988 30.1864 19.1518 30.1773 19.108 30.1594C19.0641 30.1415 19.0242 30.1151 18.9905 30.0817C18.9568 30.0482 18.93 30.0084 18.9117 29.9645C18.8934 29.9206 18.884 29.8736 18.884 29.826C18.884 29.7785 18.8934 29.7314 18.9117 29.6876C18.93 29.6437 18.9568 29.6038 18.9905 29.5704L19.7782 28.7648ZM17.4262 31.1226L15.9462 32.599C15.9125 32.6324 15.8857 32.6723 15.8674 32.7162C15.8491 32.76 15.8397 32.8071 15.8397 32.8546C15.8397 32.9022 15.8491 32.9492 15.8674 32.9931C15.8857 33.037 15.9125 33.0768 15.9462 33.1103C15.9799 33.1437 16.0198 33.1701 16.0637 33.188C16.1075 33.2059 16.1545 33.215 16.2019 33.2147C16.2493 33.215 16.2963 33.2059 16.3401 33.188C16.384 33.1701 16.4239 33.1437 16.4576 33.1103L17.934 31.6303C17.993 31.5614 18.0238 31.4728 18.0203 31.3822C18.0168 31.2915 17.9792 31.2056 17.9151 31.1414C17.851 31.0773 17.765 31.0397 17.6744 31.0362C17.5837 31.0327 17.4951 31.0636 17.4262 31.1226ZM12.087 29.5544L13.567 28.078C13.6359 28.019 13.7245 27.9882 13.8151 27.9917C13.9057 27.9952 13.9917 28.0328 14.0558 28.0969C14.12 28.161 14.1575 28.247 14.1611 28.3376C14.1646 28.4283 14.1337 28.5169 14.0747 28.5858L12.5983 30.0658C12.5647 30.0991 12.5248 30.1256 12.4809 30.1435C12.437 30.1614 12.39 30.1705 12.3427 30.1702C12.2953 30.1705 12.2483 30.1614 12.2044 30.1435C12.1605 30.1256 12.1206 30.0991 12.087 30.0658C12.0532 30.0323 12.0264 29.9925 12.0082 29.9486C11.9899 29.9047 11.9805 29.8576 11.9805 29.8101C11.9805 29.7626 11.9899 29.7155 12.0082 29.6716C12.0264 29.6277 12.0532 29.5879 12.087 29.5544Z" fill="black" fill-opacity="0.1"/>
</g>
<g filter="url(#filter3_i_1244_1784)">
<path fill-rule="evenodd" clip-rule="evenodd" d="M33.4901 12.2611C33.5437 12.3148 33.5791 12.384 33.591 12.459C33.7391 14.2098 33.5881 15.9731 33.1445 17.6732L28.1247 12.5994C29.8097 12.1604 31.5572 12.0119 33.2921 12.1601C33.3671 12.1721 33.4364 12.2074 33.4901 12.2611ZM20.69 17.4573L15.8287 25.2283C15.7852 25.2974 15.7666 25.3792 15.7757 25.4604C15.7849 25.5415 15.8213 25.6171 15.8791 25.6748L20.0779 29.8735C20.1112 29.9076 20.151 29.9346 20.1949 29.9532C20.2388 29.9717 20.2859 29.9814 20.3335 29.9816C20.4015 29.982 20.468 29.9619 20.5244 29.924L28.3205 25.041C30.5182 23.3955 32.1341 21.0922 32.9334 18.4656L27.3339 12.8193C24.6811 13.6169 22.3531 15.2421 20.69 17.4573Z" fill="#484848"/>
</g>
<g filter="url(#filter4_bi_1244_1784)">
<path d="M23.4587 27.4157C22.4211 28.2715 22.0706 29.6729 22.0484 31.0177C22.0296 32.1558 21.7423 33.2842 21.1962 34.3066C21.1529 34.3769 21.1351 34.46 21.1457 34.5419C21.1564 34.6239 21.1949 34.6996 21.2548 34.7565C21.2932 34.7921 21.3388 34.8188 21.3886 34.8349C21.4384 34.851 21.491 34.8561 21.5429 34.8497C21.6028 34.8423 21.6598 34.8198 21.7088 34.7846C23.1326 33.7634 25.5882 31.7354 26.8593 29.1424C27.9264 26.9657 25.3287 25.8731 23.4587 27.4157Z" fill="black" fill-opacity="0.09"/>
<path d="M23.4587 27.4157C22.4211 28.2715 22.0706 29.6729 22.0484 31.0177C22.0296 32.1558 21.7423 33.2842 21.1962 34.3066C21.1529 34.3769 21.1351 34.46 21.1457 34.5419C21.1564 34.6239 21.1949 34.6996 21.2548 34.7565C21.2932 34.7921 21.3388 34.8188 21.3886 34.8349C21.4384 34.851 21.491 34.8561 21.5429 34.8497C21.6028 34.8423 21.6598 34.8198 21.7088 34.7846C23.1326 33.7634 25.5882 31.7354 26.8593 29.1424C27.9264 26.9657 25.3287 25.8731 23.4587 27.4157Z" fill="#272727" fill-opacity="0.05"/>
</g>
<g filter="url(#filter5_bi_1244_1784)">
<path d="M18.5316 22.6992C17.6521 23.7168 16.243 24.035 14.8981 24.0263C13.7598 24.0189 12.6252 24.2801 11.5905 24.8025C11.5192 24.8442 11.4357 24.8601 11.354 24.8476C11.2724 24.835 11.1975 24.7948 11.142 24.7336C11.1074 24.6944 11.0817 24.6482 11.0667 24.598C11.0518 24.5479 11.0479 24.4952 11.0555 24.4434C11.0643 24.3837 11.088 24.3272 11.1244 24.2791C12.178 22.8792 14.262 20.4709 16.8836 19.2597C19.0843 18.243 20.1168 20.8651 18.5316 22.6992Z" fill="black" fill-opacity="0.09"/>
</g>
<g filter="url(#filter6_bdiii_1244_1784)">
<path d="M-nan -nanL16.5359 28.6633L14.7354 30.4638C14.7017 30.4973 14.6749 30.5371 14.6566 30.581C14.6383 30.6249 14.6289 30.6719 14.6289 30.7195C14.6289 30.767 14.6383 30.8141 14.6566 30.858C14.6749 30.9018 14.7017 30.9417 14.7354 30.9751C14.7691 31.0085 14.809 31.0349 14.8528 31.0528C14.8967 31.0708 14.9437 31.0798 14.9911 31.0796C15.0856 31.0792 15.1761 31.0417 15.2432 30.9751L17.0437 29.1746C17.0774 29.1412 17.1042 29.1013 17.1225 29.0575C17.1408 29.0136 17.1502 28.9665 17.1502 28.919C17.1502 28.8714 17.1408 28.8244 17.1225 28.7805C17.1042 28.7366 17.0774 28.6968 17.0437 28.6633C16.9762 28.5962 16.8849 28.5586 16.7898 28.5586C16.6947 28.5586 16.6034 28.5962 16.5359 28.6633L-nan -nanZ" fill="url(#paint1_linear_1244_1784)" fill-opacity="0.21"/>
<path d="M-nan -nanL16.5359 28.6633L14.7354 30.4638C14.7017 30.4973 14.6749 30.5371 14.6566 30.581C14.6383 30.6249 14.6289 30.6719 14.6289 30.7195C14.6289 30.767 14.6383 30.8141 14.6566 30.858C14.6749 30.9018 14.7017 30.9417 14.7354 30.9751C14.7691 31.0085 14.809 31.0349 14.8528 31.0528C14.8967 31.0708 14.9437 31.0798 14.9911 31.0796C15.0856 31.0792 15.1761 31.0417 15.2432 30.9751L17.0437 29.1746C17.0774 29.1412 17.1042 29.1013 17.1225 29.0575C17.1408 29.0136 17.1502 28.9665 17.1502 28.919C17.1502 28.8714 17.1408 28.8244 17.1225 28.7805C17.1042 28.7366 17.0774 28.6968 17.0437 28.6633C16.9762 28.5962 16.8849 28.5586 16.7898 28.5586C16.6947 28.5586 16.6034 28.5962 16.5359 28.6633L-nan -nanZ" fill="#151515" fill-opacity="0.1"/>
</g>
<g filter="url(#filter7_bdii_1244_1784)">
<path fill-rule="evenodd" clip-rule="evenodd" d="M16.4124 25.3944C16.4152 25.3916 16.4156 25.3873 16.4135 25.384C16.4114 25.3809 16.4116 25.3769 16.4141 25.3741C16.4456 25.3386 16.4839 25.3096 16.5267 25.2889C16.5714 25.2673 16.62 25.2551 16.6696 25.2532C16.7192 25.2513 16.7687 25.2596 16.8149 25.2777C16.8611 25.2958 16.903 25.3233 16.9381 25.3584C16.9732 25.3935 17.0007 25.4355 17.0188 25.4817C17.0369 25.5279 17.0452 25.5773 17.0433 25.6269C17.0414 25.6765 17.0293 25.7252 17.0077 25.7699C16.986 25.8145 16.9554 25.8543 16.9177 25.8865L16.1147 26.6896C16.0509 26.7605 15.9615 26.8033 15.8662 26.8084C15.795 26.8081 15.7255 26.7867 15.6664 26.7469C15.6074 26.7071 15.5615 26.6506 15.5345 26.5847C15.5075 26.5188 15.5007 26.4464 15.5149 26.3766C15.5291 26.3068 15.5636 26.2428 15.6142 26.1926L16.4124 25.3944ZM12.5577 32.5772L15.0352 30.0889C15.103 30.0197 15.1955 29.9802 15.2924 29.9792C15.3893 29.9782 15.4827 30.0157 15.5519 30.0835C15.6212 30.1514 15.6606 30.2439 15.6616 30.3408C15.6627 30.4377 15.6251 30.531 15.5573 30.6003L13.0654 33.0886C12.9976 33.1559 12.9059 33.1935 12.8103 33.1932C12.7147 33.1929 12.6232 33.1546 12.5559 33.0868C12.4886 33.019 12.4509 32.9272 12.4513 32.8316C12.4516 32.7361 12.4899 32.6446 12.5577 32.5772ZM17.8762 27.488C17.8784 27.4913 17.8779 27.4957 17.8751 27.4984L17.0769 28.2967C17.0263 28.3468 16.9918 28.4109 16.9776 28.4806C16.9634 28.5504 16.9702 28.6229 16.9972 28.6888C17.0242 28.7547 17.0701 28.8111 17.1292 28.8509C17.1882 28.8907 17.2577 28.9122 17.329 28.9125C17.4243 28.9073 17.5136 28.8646 17.5774 28.7936L18.3805 27.9906C18.4181 27.9583 18.4488 27.9186 18.4704 27.8739C18.492 27.8292 18.5041 27.7806 18.5061 27.731C18.508 27.6814 18.4996 27.6319 18.4815 27.5857C18.4634 27.5395 18.4359 27.4976 18.4009 27.4625C18.3658 27.4274 18.3238 27.3999 18.2776 27.3818C18.2314 27.3637 18.1819 27.3553 18.1323 27.3573C18.0827 27.3592 18.0341 27.3713 17.9894 27.3929C17.9466 27.4136 17.9083 27.4426 17.8768 27.4782C17.8744 27.4809 17.8741 27.485 17.8762 27.488ZM19.7821 28.7648C19.7848 28.7621 19.789 28.7617 19.7921 28.7638C19.7952 28.7659 19.7994 28.7654 19.8021 28.7628C19.8694 28.6983 19.9592 28.6624 20.0526 28.6627C20.1482 28.6631 20.2397 28.7013 20.307 28.7691C20.3743 28.837 20.412 28.9287 20.4116 29.0243C20.4113 29.1198 20.373 29.2114 20.3052 29.2787L19.5022 30.0817C19.4351 30.1482 19.3446 30.1857 19.2501 30.1861C19.2027 30.1864 19.1558 30.1773 19.1119 30.1594C19.068 30.1415 19.0281 30.1151 18.9945 30.0817C18.9607 30.0482 18.9339 30.0084 18.9156 29.9645C18.8973 29.9206 18.8879 29.8736 18.8879 29.826C18.8879 29.7785 18.8973 29.7314 18.9156 29.6876C18.9339 29.6437 18.9607 29.6038 18.9945 29.5704L19.7821 28.7648ZM17.4301 31.1226L15.9501 32.599C15.9164 32.6324 15.8896 32.6723 15.8713 32.7162C15.853 32.76 15.8436 32.8071 15.8436 32.8546C15.8436 32.9022 15.853 32.9492 15.8713 32.9931C15.8896 33.037 15.9164 33.0768 15.9501 33.1103C15.9838 33.1437 16.0237 33.1701 16.0676 33.188C16.1114 33.2059 16.1584 33.215 16.2058 33.2147C16.2532 33.215 16.3002 33.2059 16.344 33.188C16.3879 33.1701 16.4278 33.1437 16.4615 33.1103L17.9379 31.6303C17.9969 31.5614 18.0277 31.4728 18.0242 31.3822C18.0207 31.2915 17.9831 31.2056 17.919 31.1414C17.8549 31.0773 17.7689 31.0397 17.6783 31.0362C17.5876 31.0327 17.499 31.0636 17.4301 31.1226ZM12.0909 29.5544L13.5709 28.078C13.6398 28.019 13.7284 27.9882 13.819 27.9917C13.9097 27.9952 13.9956 28.0328 14.0598 28.0969C14.1239 28.161 14.1615 28.247 14.165 28.3376C14.1685 28.4283 14.1376 28.5169 14.0786 28.5858L12.6022 30.0658C12.5686 30.0991 12.5287 30.1256 12.4848 30.1435C12.4409 30.1614 12.394 30.1705 12.3466 30.1702C12.2992 30.1705 12.2522 30.1614 12.2083 30.1435C12.1644 30.1256 12.1245 30.0991 12.0909 30.0658C12.0571 30.0323 12.0304 29.9925 12.0121 29.9486C11.9938 29.9047 11.9844 29.8576 11.9844 29.8101C11.9844 29.7626 11.9938 29.7155 12.0121 29.6716C12.0304 29.6277 12.0571 29.5879 12.0909 29.5544Z" fill="black"/>
</g>
<g filter="url(#filter8_bdii_1244_1784)">
<circle cx="26.8527" cy="18.5417" r="2.71989" fill="url(#paint2_linear_1244_1784)" fill-opacity="0.21"/>
<circle cx="26.8527" cy="18.5417" r="2.71989" fill="#383838" fill-opacity="0.26"/>
</g>
<defs>
<filter id="filter0_i_1244_1784" x="15.7773" y="9.10449" width="26.8711" height="20.877" filterUnits="userSpaceOnUse" color-interpolation-filters="sRGB">
<feFlood flood-opacity="0" result="BackgroundImageFix"/>
<feBlend mode="normal" in="SourceGraphic" in2="BackgroundImageFix" result="shape"/>
<feColorMatrix in="SourceAlpha" type="matrix" values="0 0 0 0 0 0 0 0 0 0 0 0 0 0 0 0 0 0 127 0" result="hardAlpha"/>
<feOffset dx="9" dy="-3"/>
<feGaussianBlur stdDeviation="10"/>
<feComposite in2="hardAlpha" operator="arithmetic" k2="-1" k3="1"/>
<feColorMatrix type="matrix" values="0 0 0 0 0 0 0 0 0 0 0 0 0 0 0 0 0 0 0.17 0"/>
<feBlend mode="normal" in2="shape" result="effect1_innerShadow_1244_1784"/>
</filter>
<filter id="filter1_bdiii_1244_1784" x="-5.37109" y="8.55859" width="51.5195" height="47.521" filterUnits="userSpaceOnUse" color-interpolation-filters="sRGB">
<feFlood flood-opacity="0" result="BackgroundImageFix"/>
<feGaussianBlur in="BackgroundImageFix" stdDeviation="10"/>
<feComposite in2="SourceAlpha" operator="in" result="effect1_backgroundBlur_1244_1784"/>
<feColorMatrix in="SourceAlpha" type="matrix" values="0 0 0 0 0 0 0 0 0 0 0 0 0 0 0 0 0 0 127 0" result="hardAlpha"/>
<feOffset dx="9" dy="5"/>
<feGaussianBlur stdDeviation="10"/>
<feColorMatrix type="matrix" values="0 0 0 0 0.0690278 0 0 0 0 0.295833 0 0 0 0 0.11166 0 0 0 0.08 0"/>
<feBlend mode="normal" in2="effect1_backgroundBlur_1244_1784" result="effect2_dropShadow_1244_1784"/>
<feBlend mode="normal" in="SourceGraphic" in2="effect2_dropShadow_1244_1784" result="shape"/>
<feColorMatrix in="SourceAlpha" type="matrix" values="0 0 0 0 0 0 0 0 0 0 0 0 0 0 0 0 0 0 127 0" result="hardAlpha"/>
<feOffset dx="-10" dy="10"/>
<feGaussianBlur stdDeviation="5"/>
<feComposite in2="hardAlpha" operator="arithmetic" k2="-1" k3="1"/>
<feColorMatrix type="matrix" values="0 0 0 0 1 0 0 0 0 1 0 0 0 0 1 0 0 0 0.15 0"/>
<feBlend mode="normal" in2="shape" result="effect3_innerShadow_1244_1784"/>
<feColorMatrix in="SourceAlpha" type="matrix" values="0 0 0 0 0 0 0 0 0 0 0 0 0 0 0 0 0 0 127 0" result="hardAlpha"/>
<feOffset dy="-10"/>
<feGaussianBlur stdDeviation="5"/>
<feComposite in2="hardAlpha" operator="arithmetic" k2="-1" k3="1"/>
<feColorMatrix type="matrix" values="0 0 0 0 0.156863 0 0 0 0 0.67451 0 0 0 0 0.25098 0 0 0 0.3 0"/>
<feBlend mode="normal" in2="effect3_innerShadow_1244_1784" result="effect4_innerShadow_1244_1784"/>
<feColorMatrix in="SourceAlpha" type="matrix" values="0 0 0 0 0 0 0 0 0 0 0 0 0 0 0 0 0 0 127 0" result="hardAlpha"/>
<feOffset dx="-3" dy="6"/>
<feGaussianBlur stdDeviation="7.5"/>
<feComposite in2="hardAlpha" operator="arithmetic" k2="-1" k3="1"/>
<feColorMatrix type="matrix" values="0 0 0 0 0.0770313 0 0 0 0 0.6375 0 0 0 0 0.178935 0 0 0 0.09 0"/>
<feBlend mode="normal" in2="effect4_innerShadow_1244_1784" result="effect5_innerShadow_1244_1784"/>
</filter>
<filter id="filter2_bdii_1244_1784" x="-8.01953" y="5.25293" width="57.4258" height="52.9619" filterUnits="userSpaceOnUse" color-interpolation-filters="sRGB">
<feFlood flood-opacity="0" result="BackgroundImageFix"/>
<feGaussianBlur in="BackgroundImageFix" stdDeviation="10"/>
<feComposite in2="SourceAlpha" operator="in" result="effect1_backgroundBlur_1244_1784"/>
<feColorMatrix in="SourceAlpha" type="matrix" values="0 0 0 0 0 0 0 0 0 0 0 0 0 0 0 0 0 0 127 0" result="hardAlpha"/>
<feOffset dx="9" dy="5"/>
<feGaussianBlur stdDeviation="10"/>
<feColorMatrix type="matrix" values="0 0 0 0 0.0690278 0 0 0 0 0.295833 0 0 0 0 0.11166 0 0 0 0.08 0"/>
<feBlend mode="normal" in2="effect1_backgroundBlur_1244_1784" result="effect2_dropShadow_1244_1784"/>
<feBlend mode="normal" in="SourceGraphic" in2="effect2_dropShadow_1244_1784" result="shape"/>
<feColorMatrix in="SourceAlpha" type="matrix" values="0 0 0 0 0 0 0 0 0 0 0 0 0 0 0 0 0 0 127 0" result="hardAlpha"/>
<feOffset/>
<feGaussianBlur stdDeviation="5"/>
<feComposite in2="hardAlpha" operator="arithmetic" k2="-1" k3="1"/>
<feColorMatrix type="matrix" values="0 0 0 0 0.156863 0 0 0 0 0.67451 0 0 0 0 0.25098 0 0 0 0.2 0"/>
<feBlend mode="normal" in2="shape" result="effect3_innerShadow_1244_1784"/>
<feColorMatrix in="SourceAlpha" type="matrix" values="0 0 0 0 0 0 0 0 0 0 0 0 0 0 0 0 0 0 127 0" result="hardAlpha"/>
<feOffset dx="-3" dy="6"/>
<feGaussianBlur stdDeviation="7.5"/>
<feComposite in2="hardAlpha" operator="arithmetic" k2="-1" k3="1"/>
<feColorMatrix type="matrix" values="0 0 0 0 0.0770313 0 0 0 0 0.6375 0 0 0 0 0.178935 0 0 0 0.09 0"/>
<feBlend mode="normal" in2="effect3_innerShadow_1244_1784" result="effect4_innerShadow_1244_1784"/>
</filter>
<filter id="filter3_i_1244_1784" x="15.7734" y="9.10449" width="26.8711" height="20.877" filterUnits="userSpaceOnUse" color-interpolation-filters="sRGB">
<feFlood flood-opacity="0" result="BackgroundImageFix"/>
<feBlend mode="normal" in="SourceGraphic" in2="BackgroundImageFix" result="shape"/>
<feColorMatrix in="SourceAlpha" type="matrix" values="0 0 0 0 0 0 0 0 0 0 0 0 0 0 0 0 0 0 127 0" result="hardAlpha"/>
<feOffset dx="9" dy="-3"/>
<feGaussianBlur stdDeviation="10"/>
<feComposite in2="hardAlpha" operator="arithmetic" k2="-1" k3="1"/>
<feColorMatrix type="matrix" values="0 0 0 0 0 0 0 0 0 0 0 0 0 0 0 0 0 0 0.17 0"/>
<feBlend mode="normal" in2="shape" result="effect1_innerShadow_1244_1784"/>
</filter>
<filter id="filter4_bi_1244_1784" x="1.14453" y="6.69336" width="45.9648" height="48.1592" filterUnits="userSpaceOnUse" color-interpolation-filters="sRGB">
<feFlood flood-opacity="0" result="BackgroundImageFix"/>
<feGaussianBlur in="BackgroundImageFix" stdDeviation="10"/>
<feComposite in2="SourceAlpha" operator="in" result="effect1_backgroundBlur_1244_1784"/>
<feBlend mode="normal" in="SourceGraphic" in2="effect1_backgroundBlur_1244_1784" result="shape"/>
<feColorMatrix in="SourceAlpha" type="matrix" values="0 0 0 0 0 0 0 0 0 0 0 0 0 0 0 0 0 0 127 0" result="hardAlpha"/>
<feOffset dx="-10" dy="10"/>
<feGaussianBlur stdDeviation="5"/>
<feComposite in2="hardAlpha" operator="arithmetic" k2="-1" k3="1"/>
<feColorMatrix type="matrix" values="0 0 0 0 1 0 0 0 0 1 0 0 0 0 1 0 0 0 0.15 0"/>
<feBlend mode="normal" in2="shape" result="effect2_innerShadow_1244_1784"/>
</filter>
<filter id="filter5_bi_1244_1784" x="-8.94922" y="-0.967285" width="48.2461" height="45.8188" filterUnits="userSpaceOnUse" color-interpolation-filters="sRGB">
<feFlood flood-opacity="0" result="BackgroundImageFix"/>
<feGaussianBlur in="BackgroundImageFix" stdDeviation="10"/>
<feComposite in2="SourceAlpha" operator="in" result="effect1_backgroundBlur_1244_1784"/>
<feBlend mode="normal" in="SourceGraphic" in2="effect1_backgroundBlur_1244_1784" result="shape"/>
<feColorMatrix in="SourceAlpha" type="matrix" values="0 0 0 0 0 0 0 0 0 0 0 0 0 0 0 0 0 0 127 0" result="hardAlpha"/>
<feOffset dx="-10" dy="10"/>
<feGaussianBlur stdDeviation="5"/>
<feComposite in2="hardAlpha" operator="arithmetic" k2="-1" k3="1"/>
<feColorMatrix type="matrix" values="0 0 0 0 1 0 0 0 0 1 0 0 0 0 1 0 0 0 0.15 0"/>
<feBlend mode="normal" in2="shape" result="effect2_innerShadow_1244_1784"/>
</filter>
<filter id="filter6_bdiii_1244_1784" x="-5.37109" y="8.55859" width="51.5195" height="47.521" filterUnits="userSpaceOnUse" color-interpolation-filters="sRGB">
<feFlood flood-opacity="0" result="BackgroundImageFix"/>
<feGaussianBlur in="BackgroundImageFix" stdDeviation="10"/>
<feComposite in2="SourceAlpha" operator="in" result="effect1_backgroundBlur_1244_1784"/>
<feColorMatrix in="SourceAlpha" type="matrix" values="0 0 0 0 0 0 0 0 0 0 0 0 0 0 0 0 0 0 127 0" result="hardAlpha"/>
<feOffset dx="9" dy="5"/>
<feGaussianBlur stdDeviation="10"/>
<feColorMatrix type="matrix" values="0 0 0 0 0.0690278 0 0 0 0 0.295833 0 0 0 0 0.11166 0 0 0 0.08 0"/>
<feBlend mode="normal" in2="effect1_backgroundBlur_1244_1784" result="effect2_dropShadow_1244_1784"/>
<feBlend mode="normal" in="SourceGraphic" in2="effect2_dropShadow_1244_1784" result="shape"/>
<feColorMatrix in="SourceAlpha" type="matrix" values="0 0 0 0 0 0 0 0 0 0 0 0 0 0 0 0 0 0 127 0" result="hardAlpha"/>
<feOffset dx="-10" dy="10"/>
<feGaussianBlur stdDeviation="5"/>
<feComposite in2="hardAlpha" operator="arithmetic" k2="-1" k3="1"/>
<feColorMatrix type="matrix" values="0 0 0 0 1 0 0 0 0 1 0 0 0 0 1 0 0 0 0.15 0"/>
<feBlend mode="normal" in2="shape" result="effect3_innerShadow_1244_1784"/>
<feColorMatrix in="SourceAlpha" type="matrix" values="0 0 0 0 0 0 0 0 0 0 0 0 0 0 0 0 0 0 127 0" result="hardAlpha"/>
<feOffset dy="-10"/>
<feGaussianBlur stdDeviation="5"/>
<feComposite in2="hardAlpha" operator="arithmetic" k2="-1" k3="1"/>
<feColorMatrix type="matrix" values="0 0 0 0 0.156863 0 0 0 0 0.67451 0 0 0 0 0.25098 0 0 0 0.3 0"/>
<feBlend mode="normal" in2="effect3_innerShadow_1244_1784" result="effect4_innerShadow_1244_1784"/>
<feColorMatrix in="SourceAlpha" type="matrix" values="0 0 0 0 0 0 0 0 0 0 0 0 0 0 0 0 0 0 127 0" result="hardAlpha"/>
<feOffset dx="-3" dy="6"/>
<feGaussianBlur stdDeviation="7.5"/>
<feComposite in2="hardAlpha" operator="arithmetic" k2="-1" k3="1"/>
<feColorMatrix type="matrix" values="0 0 0 0 0.0770313 0 0 0 0 0.6375 0 0 0 0 0.178935 0 0 0 0.09 0"/>
<feBlend mode="normal" in2="effect4_innerShadow_1244_1784" result="effect5_innerShadow_1244_1784"/>
</filter>
<filter id="filter7_bdii_1244_1784" x="-8.01562" y="5.25293" width="57.4258" height="52.9619" filterUnits="userSpaceOnUse" color-interpolation-filters="sRGB">
<feFlood flood-opacity="0" result="BackgroundImageFix"/>
<feGaussianBlur in="BackgroundImageFix" stdDeviation="10"/>
<feComposite in2="SourceAlpha" operator="in" result="effect1_backgroundBlur_1244_1784"/>
<feColorMatrix in="SourceAlpha" type="matrix" values="0 0 0 0 0 0 0 0 0 0 0 0 0 0 0 0 0 0 127 0" result="hardAlpha"/>
<feOffset dx="9" dy="5"/>
<feGaussianBlur stdDeviation="10"/>
<feColorMatrix type="matrix" values="0 0 0 0 0.0690278 0 0 0 0 0.295833 0 0 0 0 0.11166 0 0 0 0.08 0"/>
<feBlend mode="normal" in2="effect1_backgroundBlur_1244_1784" result="effect2_dropShadow_1244_1784"/>
<feBlend mode="normal" in="SourceGraphic" in2="effect2_dropShadow_1244_1784" result="shape"/>
<feColorMatrix in="SourceAlpha" type="matrix" values="0 0 0 0 0 0 0 0 0 0 0 0 0 0 0 0 0 0 127 0" result="hardAlpha"/>
<feOffset/>
<feGaussianBlur stdDeviation="5"/>
<feComposite in2="hardAlpha" operator="arithmetic" k2="-1" k3="1"/>
<feColorMatrix type="matrix" values="0 0 0 0 0.156863 0 0 0 0 0.67451 0 0 0 0 0.25098 0 0 0 0.2 0"/>
<feBlend mode="normal" in2="shape" result="effect3_innerShadow_1244_1784"/>
<feColorMatrix in="SourceAlpha" type="matrix" values="0 0 0 0 0 0 0 0 0 0 0 0 0 0 0 0 0 0 127 0" result="hardAlpha"/>
<feOffset dx="-3" dy="6"/>
<feGaussianBlur stdDeviation="7.5"/>
<feComposite in2="hardAlpha" operator="arithmetic" k2="-1" k3="1"/>
<feColorMatrix type="matrix" values="0 0 0 0 0.0770313 0 0 0 0 0.6375 0 0 0 0 0.178935 0 0 0 0.09 0"/>
<feBlend mode="normal" in2="effect3_innerShadow_1244_1784" result="effect4_innerShadow_1244_1784"/>
</filter>
<filter id="filter8_bdii_1244_1784" x="4.13281" y="-4.17822" width="54.4414" height="50.4399" filterUnits="userSpaceOnUse" color-interpolation-filters="sRGB">
<feFlood flood-opacity="0" result="BackgroundImageFix"/>
<feGaussianBlur in="BackgroundImageFix" stdDeviation="10"/>
<feComposite in2="SourceAlpha" operator="in" result="effect1_backgroundBlur_1244_1784"/>
<feColorMatrix in="SourceAlpha" type="matrix" values="0 0 0 0 0 0 0 0 0 0 0 0 0 0 0 0 0 0 127 0" result="hardAlpha"/>
<feOffset dx="9" dy="5"/>
<feGaussianBlur stdDeviation="10"/>
<feColorMatrix type="matrix" values="0 0 0 0 0.0690278 0 0 0 0 0.295833 0 0 0 0 0.11166 0 0 0 0.08 0"/>
<feBlend mode="normal" in2="effect1_backgroundBlur_1244_1784" result="effect2_dropShadow_1244_1784"/>
<feBlend mode="normal" in="SourceGraphic" in2="effect2_dropShadow_1244_1784" result="shape"/>
<feColorMatrix in="SourceAlpha" type="matrix" values="0 0 0 0 0 0 0 0 0 0 0 0 0 0 0 0 0 0 127 0" result="hardAlpha"/>
<feOffset dx="-10" dy="10"/>
<feGaussianBlur stdDeviation="5"/>
<feComposite in2="hardAlpha" operator="arithmetic" k2="-1" k3="1"/>
<feColorMatrix type="matrix" values="0 0 0 0 1 0 0 0 0 1 0 0 0 0 1 0 0 0 0.15 0"/>
<feBlend mode="normal" in2="shape" result="effect3_innerShadow_1244_1784"/>
<feColorMatrix in="SourceAlpha" type="matrix" values="0 0 0 0 0 0 0 0 0 0 0 0 0 0 0 0 0 0 127 0" result="hardAlpha"/>
<feOffset dx="3" dy="-6"/>
<feGaussianBlur stdDeviation="4.5"/>
<feComposite in2="hardAlpha" operator="arithmetic" k2="-1" k3="1"/>
<feColorMatrix type="matrix" values="0 0 0 0 0.0199306 0 0 0 0 0.341667 0 0 0 0 0.0521041 0 0 0 0.05 0"/>
<feBlend mode="normal" in2="effect3_innerShadow_1244_1784" result="effect4_innerShadow_1244_1784"/>
</filter>
<linearGradient id="paint0_linear_1244_1784" x1="16.8719" y1="28.5586" x2="16.2455" y2="31.3745" gradientUnits="userSpaceOnUse">
<stop stop-color="#323331"/>
<stop offset="1" stop-color="#202020"/>
</linearGradient>
<linearGradient id="paint1_linear_1244_1784" x1="16.8719" y1="28.5586" x2="16.2455" y2="31.3745" gradientUnits="userSpaceOnUse">
<stop stop-color="#323331"/>
<stop offset="1" stop-color="#202020"/>
</linearGradient>
<linearGradient id="paint2_linear_1244_1784" x1="28.9721" y1="15.8218" x2="27.6205" y2="21.8979" gradientUnits="userSpaceOnUse">
<stop stop-color="#323331"/>
<stop offset="1" stop-color="#202020"/>
</linearGradient>
</defs>
</svg>
