<svg width="22" height="22" viewBox="0 0 22 22" fill="none" xmlns="http://www.w3.org/2000/svg">
<path d="M11 13.75C12.5188 13.75 13.75 12.5188 13.75 11C13.75 9.48122 12.5188 8.25 11 8.25C9.48122 8.25 8.25 9.48122 8.25 11C8.25 12.5188 9.48122 13.75 11 13.75Z" stroke="#646464" stroke-width="1.5" stroke-miterlimit="10" stroke-linecap="round" stroke-linejoin="round"/>
<path d="M1.83594 11.8066V10.1933C1.83594 9.23998 2.6151 8.45165 3.5776 8.45165C5.23677 8.45165 5.9151 7.27832 5.08094 5.83915C4.60427 5.01415 4.88844 3.94165 5.7226 3.46498L7.30844 2.55748C8.0326 2.12665 8.9676 2.38332 9.39844 3.10748L9.49927 3.28165C10.3243 4.72082 11.6809 4.72082 12.5151 3.28165L12.6159 3.10748C13.0468 2.38332 13.9818 2.12665 14.7059 2.55748L16.2918 3.46498C17.1259 3.94165 17.4101 5.01415 16.9334 5.83915C16.0993 7.27832 16.7776 8.45165 18.4368 8.45165C19.3901 8.45165 20.1784 9.23082 20.1784 10.1933V11.8066C20.1784 12.76 19.3993 13.5483 18.4368 13.5483C16.7776 13.5483 16.0993 14.7216 16.9334 16.1608C17.4101 16.995 17.1259 18.0583 16.2918 18.535L14.7059 19.4425C13.9818 19.8733 13.0468 19.6166 12.6159 18.8925L12.5151 18.7183C11.6901 17.2791 10.3334 17.2791 9.49927 18.7183L9.39844 18.8925C8.9676 19.6166 8.0326 19.8733 7.30844 19.4425L5.7226 18.535C4.88844 18.0583 4.60427 16.9858 5.08094 16.1608C5.9151 14.7216 5.23677 13.5483 3.5776 13.5483C2.6151 13.5483 1.83594 12.76 1.83594 11.8066Z" stroke="#646464" stroke-width="1.5" stroke-miterlimit="10" stroke-linecap="round" stroke-linejoin="round"/>
</svg>
