<svg width="24" height="24" viewBox="0 0 24 24" fill="none" xmlns="http://www.w3.org/2000/svg">
<path d="M16.42 7.95012C18.86 10.3901 18.86 14.3501 16.42 16.7901C13.98 19.2301 10.02 19.2301 7.58 16.7901C5.14 14.3501 5.14 10.3901 7.58 7.95012C10.02 5.51012 13.98 5.51012 16.42 7.95012Z" stroke="white" stroke-width="1.5" stroke-linecap="round" stroke-linejoin="round"/>
<path d="M8.25097 21.6409C6.25097 20.8409 4.50097 19.3909 3.34097 17.3809C2.20097 15.4109 1.82097 13.2209 2.09097 11.1309" stroke="white" stroke-width="1.5" stroke-linecap="round" stroke-linejoin="round"/>
<path d="M5.85156 4.48035C7.55156 3.15035 9.68156 2.36035 12.0016 2.36035C14.2716 2.36035 16.3616 3.13034 18.0416 4.41034" stroke="white" stroke-width="1.5" stroke-linecap="round" stroke-linejoin="round"/>
<path d="M15.75 21.6409C17.75 20.8409 19.5 19.3909 20.66 17.3809C21.8 15.4109 22.18 13.2209 21.91 11.1309" stroke="white" stroke-width="1.5" stroke-linecap="round" stroke-linejoin="round"/>
</svg>
