<svg width="22" height="22" viewBox="0 0 22 22" fill="none" xmlns="http://www.w3.org/2000/svg">
<path d="M10.9974 11.0007C13.5287 11.0007 15.5807 8.94862 15.5807 6.41732C15.5807 3.88601 13.5287 1.83398 10.9974 1.83398C8.46609 1.83398 6.41406 3.88601 6.41406 6.41732C6.41406 8.94862 8.46609 11.0007 10.9974 11.0007Z" stroke="#646464" stroke-width="1.5" stroke-linecap="round" stroke-linejoin="round"/>
<path d="M17.6088 14.4276L14.3638 17.6727C14.2354 17.801 14.1163 18.0393 14.0888 18.2135L13.9146 19.4509C13.8505 19.9001 14.1621 20.2118 14.6113 20.1476L15.8488 19.9734C16.0229 19.9459 16.2705 19.8268 16.3896 19.6985L19.6346 16.4535C20.1938 15.8943 20.4596 15.2434 19.6346 14.4184C18.8188 13.6026 18.168 13.8685 17.6088 14.4276Z" stroke="#646464" stroke-width="1.5" stroke-miterlimit="10" stroke-linecap="round" stroke-linejoin="round"/>
<path d="M17.1406 14.8945C17.4156 15.8845 18.1856 16.6545 19.1756 16.9295" stroke="#646464" stroke-width="1.5" stroke-miterlimit="10" stroke-linecap="round" stroke-linejoin="round"/>
<path d="M3.125 20.1667C3.125 16.6192 6.65419 13.75 10.9992 13.75C11.9525 13.75 12.8692 13.8875 13.7217 14.1442" stroke="#646464" stroke-width="1.5" stroke-linecap="round" stroke-linejoin="round"/>
</svg>
