<svg width="12" height="12" viewBox="0 0 12 12" fill="none" xmlns="http://www.w3.org/2000/svg">
<path d="M6 1C4.62 1 3.5 2.12 3.5 3.5C3.5 4.88 4.62 6 6 6C7.38 6 8.5 4.88 8.5 3.5C8.5 2.12 7.38 1 6 1ZM7.085 3.255L5.735 4.605C5.685 4.655 5.58 4.705 5.51 4.72L4.995 4.79C4.805 4.815 4.675 4.685 4.705 4.5L4.78 3.985C4.79 3.915 4.84 3.81 4.895 3.76L6.245 2.41C6.475 2.18 6.75 2.07 7.09 2.41C7.425 2.755 7.315 3.025 7.085 3.255Z" fill="#AEAEAE"/>
<path d="M5.99813 7C3.49312 7 1.45312 8.68 1.45312 10.75C1.45312 10.89 1.56312 11 1.70312 11H10.2931C10.4331 11 10.5431 10.89 10.5431 10.75C10.5431 8.68 8.50313 7 5.99813 7Z" fill="#AEAEAE"/>
</svg>
