<svg width="6" height="6" viewBox="0 0 6 6" fill="none" xmlns="http://www.w3.org/2000/svg">
<path d="M2.79397 4.89225C2.8169 4.92556 2.84759 4.9528 2.88339 4.97161C2.91919 4.99043 2.95902 5.00026 2.99947 5.00026C3.03991 5.00026 3.07974 4.99043 3.11554 4.97161C3.15134 4.9528 3.18203 4.92556 3.20497 4.89225L5.45497 1.64225C5.48101 1.60476 5.49628 1.56086 5.49912 1.5153C5.50197 1.46975 5.49227 1.42428 5.47109 1.38385C5.4499 1.34342 5.41805 1.30956 5.37897 1.28596C5.3399 1.26237 5.29511 1.24993 5.24946 1.25H0.749465C0.703926 1.25019 0.6593 1.26279 0.620386 1.28644C0.581471 1.3101 0.549741 1.34391 0.528608 1.38425C0.507474 1.42459 0.497737 1.46992 0.500443 1.51538C0.503149 1.56084 0.518196 1.6047 0.543965 1.64225L2.79397 4.89225Z" fill="black"/>
</svg>
