<svg width="22" height="22" viewBox="0 0 22 22" fill="none" xmlns="http://www.w3.org/2000/svg">
<path d="M20.1667 4.4462V15.3454C20.1667 16.2345 19.4425 17.0504 18.5533 17.1604L18.2692 17.197C16.7658 17.3987 14.6483 18.022 12.9433 18.737C12.3475 18.9845 11.6875 18.5354 11.6875 17.8845V5.1337C11.6875 4.79453 11.88 4.48286 12.1825 4.31786C13.86 3.41036 16.3992 2.6037 18.1225 2.45703H18.1775C19.2775 2.45703 20.1667 3.3462 20.1667 4.4462Z" fill="#050505"/>
<path d="M9.81365 4.31786C8.13615 3.41036 5.59698 2.6037 3.87365 2.45703H3.80948C2.70948 2.45703 1.82031 3.3462 1.82031 4.4462V15.3454C1.82031 16.2345 2.54448 17.0504 3.43365 17.1604L3.71781 17.197C5.22115 17.3987 7.33865 18.022 9.04365 18.737C9.63948 18.9845 10.2995 18.5354 10.2995 17.8845V5.1337C10.2995 4.78536 10.1161 4.48286 9.81365 4.31786ZM4.57948 7.09536H6.64198C7.01781 7.09536 7.32948 7.40703 7.32948 7.78286C7.32948 8.16786 7.01781 8.47036 6.64198 8.47036H4.57948C4.20365 8.47036 3.89198 8.16786 3.89198 7.78286C3.89198 7.40703 4.20365 7.09536 4.57948 7.09536ZM7.32948 11.2204H4.57948C4.20365 11.2204 3.89198 10.9179 3.89198 10.5329C3.89198 10.157 4.20365 9.84536 4.57948 9.84536H7.32948C7.70531 9.84536 8.01698 10.157 8.01698 10.5329C8.01698 10.9179 7.70531 11.2204 7.32948 11.2204Z" fill="#050505"/>
</svg>
