<svg width="24" height="24" viewBox="0 0 24 24" fill="none" xmlns="http://www.w3.org/2000/svg">
<path d="M4.25781 11.0195V15.9895C4.25781 17.8095 4.25781 17.8095 5.97781 18.9695L10.7078 21.6995C11.4178 22.1095 12.5778 22.1095 13.2878 21.6995L18.0178 18.9695C19.7378 17.8095 19.7378 17.8095 19.7378 15.9895V11.0195C19.7378 9.19945 19.7378 9.19945 18.0178 8.03945L13.2878 5.30945C12.5778 4.89945 11.4178 4.89945 10.7078 5.30945L5.97781 8.03945C4.25781 9.19945 4.25781 9.19945 4.25781 11.0195Z" stroke="#646464" stroke-width="1.5" stroke-linecap="round" stroke-linejoin="round"/>
<path d="M17.5 7.63V5C17.5 3 16.5 2 14.5 2H9.5C7.5 2 6.5 3 6.5 5V7.56" stroke="#646464" stroke-width="1.5" stroke-linecap="round" stroke-linejoin="round"/>
<path d="M12.6317 10.9909L13.2017 11.8809C13.2917 12.0209 13.4917 12.1609 13.6417 12.2009L14.6617 12.4609C15.2917 12.6209 15.4617 13.1609 15.0517 13.6609L14.3817 14.4709C14.2817 14.6009 14.2017 14.8309 14.2117 14.9909L14.2717 16.0409C14.3117 16.6909 13.8517 17.0209 13.2517 16.7809L12.2717 16.3909C12.1217 16.3309 11.8717 16.3309 11.7217 16.3909L10.7417 16.7809C10.1417 17.0209 9.68173 16.6809 9.72173 16.0409L9.78173 14.9909C9.79173 14.8309 9.71173 14.5909 9.61173 14.4709L8.94173 13.6609C8.53173 13.1609 8.70173 12.6209 9.33173 12.4609L10.3517 12.2009C10.5117 12.1609 10.7117 12.0109 10.7917 11.8809L11.3617 10.9909C11.7217 10.4509 12.2817 10.4509 12.6317 10.9909Z" stroke="#646464" stroke-width="1.5" stroke-linecap="round" stroke-linejoin="round"/>
</svg>
