<svg width="20" height="20" viewBox="0 0 20 20" fill="none" xmlns="http://www.w3.org/2000/svg">
<path d="M13.8434 0.833984H6.16177C2.8251 0.833984 0.835938 2.82315 0.835938 6.15982V13.8323C0.835938 17.1782 2.8251 19.1673 6.16177 19.1673H13.8343C17.1709 19.1673 19.1601 17.1782 19.1601 13.8415V6.15982C19.1693 2.82315 17.1801 0.833984 13.8434 0.833984ZM13.4401 13.4382H6.5651C6.18927 13.4382 5.8776 13.1265 5.8776 12.7507C5.8776 12.3748 6.18927 12.0632 6.5651 12.0632H13.4401C13.8159 12.0632 14.1276 12.3748 14.1276 12.7507C14.1276 13.1265 13.8159 13.4382 13.4401 13.4382ZM13.4401 7.93815H6.5651C6.18927 7.93815 5.8776 7.62648 5.8776 7.25065C5.8776 6.87482 6.18927 6.56315 6.5651 6.56315H13.4401C13.8159 6.56315 14.1276 6.87482 14.1276 7.25065C14.1276 7.62648 13.8159 7.93815 13.4401 7.93815Z" fill="#050505"/>
</svg>
