<svg width="24" height="25" viewBox="0 0 24 25" fill="none" xmlns="http://www.w3.org/2000/svg">
<path d="M8 6.25C7.59 6.25 7.25 5.91 7.25 5.5V2.5C7.25 2.09 7.59 1.75 8 1.75C8.41 1.75 8.75 2.09 8.75 2.5V5.5C8.75 5.91 8.41 6.25 8 6.25Z" fill="#252525"/>
<path d="M16 6.25C15.59 6.25 15.25 5.91 15.25 5.5V2.5C15.25 2.09 15.59 1.75 16 1.75C16.41 1.75 16.75 2.09 16.75 2.5V5.5C16.75 5.91 16.41 6.25 16 6.25Z" fill="#252525"/>
<path d="M18.2 22.65C16.02 22.65 14.25 20.88 14.25 18.7C14.25 16.52 16.02 14.75 18.2 14.75C20.38 14.75 22.15 16.52 22.15 18.7C22.15 20.88 20.38 22.65 18.2 22.65ZM18.2 16.25C16.85 16.25 15.75 17.35 15.75 18.7C15.75 20.05 16.85 21.15 18.2 21.15C19.55 21.15 20.65 20.05 20.65 18.7C20.65 17.35 19.55 16.25 18.2 16.25Z" fill="#252525"/>
<path d="M21.9975 23.2495C21.8075 23.2495 21.6175 23.1795 21.4675 23.0295L20.4675 22.0295C20.1775 21.7395 20.1775 21.2595 20.4675 20.9695C20.7575 20.6795 21.2375 20.6795 21.5275 20.9695L22.5275 21.9695C22.8175 22.2595 22.8175 22.7395 22.5275 23.0295C22.3775 23.1795 22.1875 23.2495 21.9975 23.2495Z" fill="#252525"/>
<path d="M8.5 15.0008C8.37 15.0008 8.24 14.9709 8.12 14.9209C7.99 14.8709 7.87999 14.8008 7.78999 14.7108C7.74999 14.6608 7.7 14.6108 7.67 14.5608C7.63 14.5008 7.6 14.4409 7.58 14.3809C7.55 14.3209 7.53 14.2609 7.52 14.2009C7.51 14.1309 7.5 14.0608 7.5 14.0008C7.5 13.7408 7.60999 13.4809 7.78999 13.2909C7.87999 13.2009 7.99 13.1308 8.12 13.0808C8.48 12.9208 8.93001 13.0109 9.21001 13.2909C9.39001 13.4809 9.5 13.7408 9.5 14.0008C9.5 14.0608 9.49 14.1309 9.48 14.2009C9.47 14.2609 9.45 14.3209 9.42 14.3809C9.4 14.4409 9.37 14.5008 9.33 14.5608C9.29 14.6108 9.25001 14.6608 9.21001 14.7108C9.02001 14.8908 8.76 15.0008 8.5 15.0008Z" fill="#252525"/>
<path d="M12 14.9992C11.74 14.9992 11.48 14.8892 11.29 14.7092C11.11 14.5192 11 14.2692 11 13.9992C11 13.8692 11.03 13.7392 11.08 13.6192C11.13 13.4992 11.2 13.3892 11.29 13.2892C11.66 12.9192 12.33 12.9192 12.71 13.2892C12.89 13.4792 13 13.7392 13 13.9992C13 14.0592 12.99 14.1292 12.98 14.1992C12.97 14.2592 12.95 14.3192 12.92 14.3792C12.9 14.4392 12.87 14.4992 12.83 14.5592C12.79 14.6092 12.75 14.6592 12.71 14.7092C12.52 14.8892 12.26 14.9992 12 14.9992Z" fill="#252525"/>
<path d="M8.5 18.4992C8.24 18.4992 7.97999 18.3892 7.78999 18.2092C7.60999 18.0192 7.5 17.7592 7.5 17.4992C7.5 17.3692 7.53 17.2392 7.58 17.1192C7.63 16.9892 7.69999 16.8792 7.78999 16.7892C8.15999 16.4192 8.84001 16.4192 9.21001 16.7892C9.39001 16.9792 9.5 17.2392 9.5 17.4992C9.5 17.7592 9.39001 18.0192 9.21001 18.2092C9.02001 18.3892 8.76 18.4992 8.5 18.4992Z" fill="#252525"/>
<path d="M20.5 10.3398H3.5C3.09 10.3398 2.75 9.99984 2.75 9.58984C2.75 9.17984 3.09 8.83984 3.5 8.83984H20.5C20.91 8.83984 21.25 9.17984 21.25 9.58984C21.25 9.99984 20.91 10.3398 20.5 10.3398Z" fill="#252525"/>
<path d="M13.37 23.25H8C4.35 23.25 2.25 21.15 2.25 17.5V9C2.25 5.35 4.35 3.25 8 3.25H16C19.65 3.25 21.75 5.35 21.75 9V13.5C21.75 13.91 21.41 14.25 21 14.25C20.59 14.25 20.25 13.91 20.25 13.5V9C20.25 6.14 18.86 4.75 16 4.75H8C5.14 4.75 3.75 6.14 3.75 9V17.5C3.75 20.36 5.14 21.75 8 21.75H13.37C13.78 21.75 14.12 22.09 14.12 22.5C14.12 22.91 13.78 23.25 13.37 23.25Z" fill="#252525"/>
</svg>
