<svg width="37" height="38" viewBox="0 0 37 38" fill="none" xmlns="http://www.w3.org/2000/svg">
<rect y="0.5" width="37" height="37" rx="18.5" fill="white"/>
<rect x="1.5" y="2" width="34" height="34" rx="17" stroke="black" stroke-opacity="0.1" stroke-width="3"/>
<path d="M22.2105 26.6139H14.7872C12.8039 26.6139 11.543 25.431 11.4297 23.4548L11.0614 17.611C11.0047 16.7256 11.3093 15.8756 11.9185 15.231C12.5205 14.5864 13.3705 14.2181 14.2489 14.2181C14.4755 14.2181 14.6951 14.0835 14.8014 13.871L15.3114 12.8581C15.7293 12.0293 16.7776 11.3848 17.6914 11.3848H19.3135C20.2272 11.3848 21.2685 12.0293 21.6864 12.851L22.1964 13.8852C22.3026 14.0835 22.5151 14.2181 22.7489 14.2181C23.6272 14.2181 24.4772 14.5864 25.0793 15.231C25.6885 15.8827 25.993 16.7256 25.9364 17.611L25.568 23.4618C25.4405 25.4664 24.2151 26.6139 22.2105 26.6139ZM17.6914 12.4473C17.1672 12.4473 16.5014 12.8581 16.2605 13.3327L15.7505 14.3527C15.453 14.9264 14.8793 15.2806 14.2489 15.2806C13.6539 15.2806 13.1014 15.5214 12.6905 15.9535C12.2868 16.3856 12.0814 16.9523 12.1239 17.5402L12.4922 23.391C12.5772 24.8219 13.3493 25.5514 14.7872 25.5514H22.2105C23.6414 25.5514 24.4135 24.8219 24.5055 23.391L24.8739 17.5402C24.9093 16.9523 24.711 16.3856 24.3072 15.9535C23.8964 15.5214 23.3439 15.2806 22.7489 15.2806C22.1185 15.2806 21.5447 14.9264 21.2472 14.3668L20.7301 13.3327C20.4964 12.8652 19.8305 12.4543 19.3064 12.4543H17.6914V12.4473Z" fill="#050505"/>
<path d="M19.5625 16.6973H17.4375C17.1471 16.6973 16.9062 16.4564 16.9062 16.166C16.9062 15.8756 17.1471 15.6348 17.4375 15.6348H19.5625C19.8529 15.6348 20.0937 15.8756 20.0937 16.166C20.0937 16.4564 19.8529 16.6973 19.5625 16.6973Z" fill="#050505"/>
<path d="M18.4974 23.7819C16.932 23.7819 15.6641 22.514 15.6641 20.9486C15.6641 19.3832 16.932 18.1152 18.4974 18.1152C20.0628 18.1152 21.3307 19.3832 21.3307 20.9486C21.3307 22.514 20.0628 23.7819 18.4974 23.7819ZM18.4974 19.1777C17.5199 19.1777 16.7266 19.9711 16.7266 20.9486C16.7266 21.9261 17.5199 22.7194 18.4974 22.7194C19.4749 22.7194 20.2682 21.9261 20.2682 20.9486C20.2682 19.9711 19.4749 19.1777 18.4974 19.1777Z" fill="#050505"/>
</svg>
