<svg width="92" height="25" viewBox="0 0 92 25" fill="none" xmlns="http://www.w3.org/2000/svg">
<path d="M33.4688 9.99972H36.0022L39.3951 18.281H39.529L42.9219 9.99972H45.4554V21.4283H43.4688V13.5767H43.3627L40.2042 21.3948H38.7199L35.5614 13.56H35.4554V21.4283H33.4688V9.99972Z" fill="#252525"/>
<path d="M51.3594 21.5957C50.5223 21.5957 49.7969 21.4116 49.183 21.0432C48.5692 20.6749 48.093 20.1597 47.7545 19.4975C47.4196 18.8353 47.2522 18.0615 47.2522 17.1761C47.2522 16.2906 47.4196 15.515 47.7545 14.8491C48.093 14.1831 48.5692 13.666 49.183 13.2977C49.7969 12.9294 50.5223 12.7453 51.3594 12.7453C52.1964 12.7453 52.9219 12.9294 53.5357 13.2977C54.1496 13.666 54.6239 14.1831 54.9587 14.8491C55.2972 15.515 55.4665 16.2906 55.4665 17.1761C55.4665 18.0615 55.2972 18.8353 54.9587 19.4975C54.6239 20.1597 54.1496 20.6749 53.5357 21.0432C52.9219 21.4116 52.1964 21.5957 51.3594 21.5957ZM51.3705 19.9774C51.8244 19.9774 52.2039 19.8528 52.5089 19.6035C52.814 19.3505 53.0409 19.012 53.1897 18.5879C53.3423 18.1638 53.4185 17.6913 53.4185 17.1705C53.4185 16.6459 53.3423 16.1716 53.1897 15.7475C53.0409 15.3197 52.814 14.9793 52.5089 14.7263C52.2039 14.4733 51.8244 14.3468 51.3705 14.3468C50.9055 14.3468 50.5186 14.4733 50.2098 14.7263C49.9048 14.9793 49.676 15.3197 49.5234 15.7475C49.3746 16.1716 49.3002 16.6459 49.3002 17.1705C49.3002 17.6913 49.3746 18.1638 49.5234 18.5879C49.676 19.012 49.9048 19.3505 50.2098 19.6035C50.5186 19.8528 50.9055 19.9774 51.3705 19.9774Z" fill="#252525"/>
<path d="M59.2012 16.406V21.4283H57.1811V12.8569H59.1119V14.3133H59.2123C59.4095 13.8334 59.7239 13.4521 60.1554 13.1694C60.5907 12.8866 61.1283 12.7453 61.7681 12.7453C62.3597 12.7453 62.8749 12.8717 63.3139 13.1247C63.7566 13.3777 64.0989 13.7441 64.3407 14.2241C64.5862 14.704 64.7071 15.2862 64.7034 15.9707V21.4283H62.6833V16.2832C62.6833 15.7103 62.5345 15.262 62.2369 14.9383C61.943 14.6147 61.5356 14.4528 61.0148 14.4528C60.6614 14.4528 60.347 14.531 60.0717 14.6872C59.8001 14.8398 59.5862 15.0611 59.43 15.3513C59.2774 15.6415 59.2012 15.993 59.2012 16.406Z" fill="#252525"/>
<path d="M66.757 21.4283V12.8569H68.7771V21.4283H66.757ZM67.7726 11.6403C67.4527 11.6403 67.1774 11.5343 66.9467 11.3223C66.7161 11.1065 66.6007 10.8479 66.6007 10.5466C66.6007 10.2415 66.7161 9.98298 66.9467 9.77093C67.1774 9.55515 67.4527 9.44727 67.7726 9.44727C68.0963 9.44727 68.3716 9.55515 68.5985 9.77093C68.8291 9.98298 68.9445 10.2415 68.9445 10.5466C68.9445 10.8479 68.8291 11.1065 68.5985 11.3223C68.3716 11.5343 68.0963 11.6403 67.7726 11.6403Z" fill="#252525"/>
<path d="M75.1345 12.8569V14.4194H70.207V12.8569H75.1345ZM71.4235 10.8033H73.4436V18.8502C73.4436 19.1217 73.4846 19.3301 73.5664 19.4752C73.652 19.6165 73.7636 19.7133 73.9012 19.7653C74.0389 19.8174 74.1914 19.8435 74.3588 19.8435C74.4853 19.8435 74.6006 19.8342 74.7048 19.8156C74.8127 19.797 74.8945 19.7802 74.9503 19.7653L75.2907 21.3446C75.1828 21.3818 75.0285 21.4227 74.8276 21.4674C74.6304 21.512 74.3886 21.538 74.1021 21.5455C73.5962 21.5604 73.1404 21.4841 72.7349 21.3167C72.3294 21.1456 72.0076 20.8814 71.7695 20.5243C71.5352 20.1671 71.4198 19.7207 71.4235 19.185V10.8033Z" fill="#252525"/>
<path d="M80.4707 21.5957C79.6337 21.5957 78.9082 21.4116 78.2944 21.0432C77.6805 20.6749 77.2043 20.1597 76.8658 19.4975C76.531 18.8353 76.3636 18.0615 76.3636 17.1761C76.3636 16.2906 76.531 15.515 76.8658 14.8491C77.2043 14.1831 77.6805 13.666 78.2944 13.2977C78.9082 12.9294 79.6337 12.7453 80.4707 12.7453C81.3078 12.7453 82.0332 12.9294 82.647 13.2977C83.2609 13.666 83.7352 14.1831 84.07 14.8491C84.4086 15.515 84.5778 16.2906 84.5778 17.1761C84.5778 18.0615 84.4086 18.8353 84.07 19.4975C83.7352 20.1597 83.2609 20.6749 82.647 21.0432C82.0332 21.4116 81.3078 21.5957 80.4707 21.5957ZM80.4819 19.9774C80.9357 19.9774 81.3152 19.8528 81.6203 19.6035C81.9253 19.3505 82.1523 19.012 82.3011 18.5879C82.4536 18.1638 82.5299 17.6913 82.5299 17.1705C82.5299 16.6459 82.4536 16.1716 82.3011 15.7475C82.1523 15.3197 81.9253 14.9793 81.6203 14.7263C81.3152 14.4733 80.9357 14.3468 80.4819 14.3468C80.0168 14.3468 79.6299 14.4733 79.3212 14.7263C79.0161 14.9793 78.7873 15.3197 78.6348 15.7475C78.486 16.1716 78.4116 16.6459 78.4116 17.1705C78.4116 17.6913 78.486 18.1638 78.6348 18.5879C78.7873 19.012 79.0161 19.3505 79.3212 19.6035C79.6299 19.8528 80.0168 19.9774 80.4819 19.9774Z" fill="#252525"/>
<path d="M86.2924 21.4283V12.8569H88.2511V14.2854H88.3404C88.4967 13.7906 88.7645 13.4093 89.144 13.1415C89.5272 12.8699 89.9643 12.7341 90.4554 12.7341C90.567 12.7341 90.6916 12.7397 90.8292 12.7508C90.9706 12.7583 91.0878 12.7713 91.1808 12.7899V14.6482C91.0952 14.6184 90.9594 14.5924 90.7734 14.57C90.5911 14.544 90.4144 14.531 90.2433 14.531C89.875 14.531 89.5439 14.611 89.25 14.7709C88.9598 14.9272 88.731 15.1448 88.5636 15.4238C88.3962 15.7028 88.3125 16.0246 88.3125 16.3892V21.4283H86.2924Z" fill="#252525"/>
<path d="M25.1953 12.5C25.1953 14.1415 24.872 15.767 24.2438 17.2835C23.6156 18.8001 22.6949 20.1781 21.5341 21.3388C20.3734 22.4996 18.9954 23.4203 17.4789 24.0485C15.9623 24.6767 14.3368 25 12.6953 25C11.0538 25 9.42834 24.6767 7.91177 24.0485C6.3952 23.4203 5.01721 22.4996 3.85648 21.3388C2.69574 20.1781 1.775 18.8001 1.14682 17.2835C0.518634 15.767 0.195312 14.1415 0.195313 12.5H5.82031C5.82031 13.4028 5.99814 14.2968 6.34364 15.1309C6.68914 15.9651 7.19555 16.723 7.83395 17.3614C8.47236 17.9998 9.23025 18.5062 10.0644 18.8517C10.8985 19.1972 11.7925 19.375 12.6953 19.375C13.5982 19.375 14.4921 19.1972 15.3263 18.8517C16.1604 18.5062 16.9183 17.9998 17.5567 17.3614C18.1951 16.723 18.7015 15.9651 19.047 15.1309C19.3925 14.2968 19.5703 13.4028 19.5703 12.5H25.1953Z" fill="#050505"/>
<path d="M19.4661 12.4792C19.4661 11.5873 19.2905 10.7041 18.9492 9.88011C18.6078 9.05611 18.1076 8.3074 17.4769 7.67673C16.8462 7.04607 16.0975 6.5458 15.2735 6.20448C14.4495 5.86317 13.5664 5.6875 12.6745 5.6875C11.7826 5.6875 10.8994 5.86317 10.0754 6.20448C9.25142 6.5458 8.50271 7.04607 7.87205 7.67673C7.24138 8.3074 6.74111 9.05611 6.3998 9.88011C6.05848 10.7041 5.88281 11.5873 5.88281 12.4792L12.6745 12.4792H19.4661Z" fill="#050505"/>
</svg>
