<svg width="20" height="21" viewBox="0 0 20 21" fill="none" xmlns="http://www.w3.org/2000/svg">
<path d="M10.0153 17.6086C8.07359 17.6086 6.13192 17.3003 4.29026 16.6836C3.59026 16.4419 3.05692 15.9503 2.82359 15.3086C2.58192 14.6669 2.66526 13.9586 3.04859 13.3253L4.00692 11.7336C4.20692 11.4003 4.39026 10.7336 4.39026 10.3419V7.93359C4.39026 4.83359 6.91526 2.30859 10.0153 2.30859C13.1153 2.30859 15.6403 4.83359 15.6403 7.93359V10.3419C15.6403 10.7253 15.8236 11.4003 16.0236 11.7419L16.9736 13.3253C17.3319 13.9253 17.3986 14.6503 17.1569 15.3086C16.9153 15.9669 16.3903 16.4669 15.7319 16.6836C13.8986 17.3003 11.9569 17.6086 10.0153 17.6086ZM10.0153 3.55859C7.60692 3.55859 5.64026 5.51693 5.64026 7.93359V10.3419C5.64026 10.9503 5.39026 11.8503 5.08192 12.3753L4.12359 13.9669C3.94026 14.2753 3.89026 14.6003 3.99859 14.8753C4.09859 15.1586 4.34859 15.3753 4.69026 15.4919C8.17359 16.6586 11.8653 16.6586 15.3486 15.4919C15.6486 15.3919 15.8819 15.1669 15.9903 14.8669C16.0986 14.5669 16.0736 14.2419 15.9069 13.9669L14.9486 12.3753C14.6319 11.8336 14.3903 10.9419 14.3903 10.3336V7.93359C14.3903 5.51693 12.4319 3.55859 10.0153 3.55859Z" fill="#252525"/>
<path d="M11.5639 3.78242C11.5056 3.78242 11.4472 3.77409 11.3889 3.75742C11.1472 3.69076 10.9139 3.64076 10.6889 3.60742C9.98058 3.51576 9.29725 3.56576 8.65558 3.75742C8.42225 3.83242 8.17225 3.75742 8.01391 3.58242C7.85558 3.40742 7.80558 3.15742 7.89725 2.93242C8.23891 2.05742 9.07225 1.48242 10.0222 1.48242C10.9722 1.48242 11.8056 2.04909 12.1472 2.93242C12.2306 3.15742 12.1889 3.40742 12.0306 3.58242C11.9056 3.71576 11.7306 3.78242 11.5639 3.78242Z" fill="#252525"/>
<path d="M10.0156 19.5078C9.19063 19.5078 8.39062 19.1745 7.80729 18.5911C7.22396 18.0078 6.89062 17.2078 6.89062 16.3828H8.14063C8.14063 16.8745 8.34062 17.3578 8.69062 17.7078C9.04062 18.0578 9.52396 18.2578 10.0156 18.2578C11.049 18.2578 11.8906 17.4161 11.8906 16.3828H13.1406C13.1406 18.1078 11.7406 19.5078 10.0156 19.5078Z" fill="#252525"/>
</svg>
