<svg width="45" height="46" viewBox="0 0 45 46" fill="none" xmlns="http://www.w3.org/2000/svg">
<rect y="0.625" width="45" height="45" rx="10" fill="#FFC7C7"/>
<g clip-path="url(#clip0_580_58295)">
<path d="M28.5429 26.9351C28.2382 27.0251 27.791 27.0352 27.3115 26.9656C26.7969 26.891 26.2719 26.7337 25.756 26.5019C26.6761 26.368 27.3898 26.4093 28.0003 26.6256C28.1449 26.6768 28.3825 26.8138 28.5429 26.9351ZM23.4095 26.0912C23.3721 26.1014 23.3352 26.111 23.2985 26.1212C23.0509 26.1886 22.8101 26.2543 22.5779 26.3128L22.2649 26.3922C21.6353 26.5515 20.9916 26.7143 20.3557 26.9081C20.5974 26.3254 20.8219 25.7362 21.0417 25.1602C21.2044 24.7339 21.3706 24.2983 21.5425 23.8684C21.6297 24.0124 21.7207 24.1564 21.8154 24.3009C22.2467 24.9579 22.789 25.5653 23.4095 26.0912ZM21.8079 19.5204C21.8488 20.2394 21.6936 20.9311 21.4661 21.5946C21.1858 20.7741 21.0551 19.8681 21.4056 19.1366C21.4954 18.9491 21.5691 18.8488 21.6168 18.7965C21.6906 18.9104 21.7876 19.1651 21.8079 19.5204ZM18.5209 28.6284C18.3634 28.9101 18.2027 29.1739 18.0379 29.4229C17.6403 30.0222 16.99 30.6638 16.6559 30.6638C16.623 30.6638 16.5832 30.6585 16.5251 30.5971C16.4877 30.5579 16.4817 30.5297 16.4835 30.4914C16.4948 30.2711 16.7867 29.8787 17.2095 29.5149C17.5934 29.1848 18.0272 28.8914 18.5209 28.6284ZM29.6066 26.9663C29.5556 26.2324 28.3202 25.7616 28.308 25.7572C27.8304 25.5879 27.3116 25.5057 26.722 25.5057C26.0908 25.5057 25.4103 25.597 24.5364 25.8012C23.7587 25.2499 23.087 24.5598 22.5851 23.7958C22.3635 23.4583 22.1643 23.1213 21.9906 22.7922C22.4146 21.7784 22.7964 20.6883 22.727 19.4674C22.6711 18.4885 22.2296 17.8309 21.6293 17.8309C21.2175 17.8309 20.8629 18.1359 20.5746 18.7383C20.0603 19.8117 20.1955 21.1851 20.9762 22.824C20.6951 23.4844 20.4338 24.1691 20.1809 24.8319C19.8663 25.6561 19.5421 26.5064 19.1768 27.3153C18.1521 27.7208 17.3103 28.2124 16.6088 28.8161C16.1492 29.2108 15.5951 29.8142 15.5635 30.4442C15.5481 30.7409 15.6498 31.0129 15.8565 31.2309C16.0761 31.4624 16.3521 31.5842 16.6554 31.5846C17.6574 31.5846 18.6218 30.2079 18.8047 29.9318C19.1729 29.3768 19.5176 28.7577 19.8553 28.0437C20.7058 27.7363 21.6121 27.5069 22.4906 27.2851L22.8053 27.2052C23.0417 27.1451 23.2876 27.0786 23.5397 27.0096C23.8065 26.9374 24.081 26.8626 24.36 26.7916C25.2621 27.3652 26.2321 27.7394 27.1782 27.8768C27.9751 27.9927 28.6827 27.9254 29.1618 27.6757C29.5929 27.4512 29.6166 27.1047 29.6066 26.9663ZM31.5472 33.2768C31.5472 34.6208 30.3626 34.7036 30.1236 34.7063H14.8405C13.5014 34.7063 13.4208 33.5136 13.4182 33.2768L13.418 12.9728C13.418 11.6274 14.6048 11.5459 14.8404 11.5432H25.1644L25.1699 11.5486V15.5775C25.1699 16.386 25.6587 17.9168 27.5099 17.9168H31.5127L31.5471 17.9511L31.5472 33.2768ZM30.5982 16.9985H27.5106C26.1718 16.9985 26.0908 15.8123 26.089 15.5776V12.4707L30.5982 16.9985ZM32.4654 33.2768V17.5723L26.089 11.1694V11.1396H26.0585L25.5464 10.625H14.8406C14.031 10.625 12.5 11.1158 12.5 12.9732V33.2772C12.5 34.0892 12.9893 35.625 14.8406 35.625H30.1251C30.9345 35.6248 32.4654 35.1339 32.4654 33.2768Z" fill="#FF0000"/>
</g>
<defs>
<clipPath id="clip0_580_58295">
<rect width="25" height="25" fill="white" transform="translate(10 10.625)"/>
</clipPath>
</defs>
</svg>
