<svg width="45" height="45" viewBox="0 0 45 45" fill="none" xmlns="http://www.w3.org/2000/svg">
<rect width="45" height="45" rx="10" fill="#FFE9C7"/>
<path d="M33.8932 14.1496C34.197 14.4516 34.4575 14.8616 34.6745 15.3795C34.8915 15.8973 35 16.372 35 16.8036V35.4464C35 35.878 34.8481 36.2448 34.5443 36.5469C34.2404 36.849 33.8715 37 33.4375 37H11.5625C11.1285 37 10.7595 36.849 10.4557 36.5469C10.1519 36.2448 10 35.878 10 35.4464V9.55357C10 9.12202 10.1519 8.75521 10.4557 8.45312C10.7595 8.15104 11.1285 8 11.5625 8H26.1458C26.5799 8 27.0573 8.10789 27.5781 8.32366C28.099 8.53943 28.5113 8.79836 28.8151 9.10045L33.8932 14.1496ZM26.6667 10.2009V16.2857H32.7865C32.6779 15.9728 32.5586 15.7517 32.4284 15.6222L27.334 10.5569C27.2038 10.4275 26.9813 10.3088 26.6667 10.2009ZM32.9167 34.9286V18.3571H26.1458C25.7118 18.3571 25.3429 18.2061 25.0391 17.904C24.7352 17.6019 24.5833 17.2351 24.5833 16.8036V10.0714H12.0833V34.9286H32.9167ZM16.7708 31.1417V32.8571H22.0931V31.1417H20.5794V28.4392H22.8092C23.6339 28.4392 24.2741 28.3583 24.7298 28.1964C25.4568 27.9483 26.0346 27.479 26.4632 26.7885C26.8918 26.098 27.1061 25.3105 27.1061 24.4258C27.1061 23.5519 26.9054 22.7913 26.5039 22.144C26.1024 21.4967 25.5599 21.0273 24.8763 20.736C24.3555 20.5311 23.6502 20.4286 22.7604 20.4286H16.7708V22.1602H18.2682V31.1417H16.7708ZM22.5163 26.6105H20.5794V22.2734H22.5326C23.0968 22.2734 23.5471 22.3705 23.8835 22.5647C24.4911 22.9208 24.7949 23.5411 24.7949 24.4258C24.7949 25.386 24.4585 26.0333 23.7858 26.3677C23.4494 26.5296 23.0263 26.6105 22.5163 26.6105Z" fill="#FF7A00"/>
</svg>
