<svg width="20" height="21" viewBox="0 0 20 21" fill="none" xmlns="http://www.w3.org/2000/svg">
<path d="M9.9974 2.16602C5.40573 2.16602 1.66406 5.90768 1.66406 10.4993C1.66406 15.091 5.40573 18.8327 9.9974 18.8327C14.5891 18.8327 18.3307 15.091 18.3307 10.4993C18.3307 5.90768 14.5891 2.16602 9.9974 2.16602ZM9.3724 7.16602C9.3724 6.82435 9.65573 6.54102 9.9974 6.54102C10.3391 6.54102 10.6224 6.82435 10.6224 7.16602V11.3327C10.6224 11.6743 10.3391 11.9577 9.9974 11.9577C9.65573 11.9577 9.3724 11.6743 9.3724 11.3327V7.16602ZM10.7641 14.1493C10.7224 14.2577 10.6641 14.341 10.5891 14.4243C10.5057 14.4993 10.4141 14.5577 10.3141 14.5993C10.2141 14.641 10.1057 14.666 9.9974 14.666C9.88906 14.666 9.78073 14.641 9.68073 14.5993C9.58073 14.5577 9.48906 14.4993 9.40573 14.4243C9.33073 14.341 9.2724 14.2577 9.23073 14.1493C9.18906 14.0493 9.16406 13.941 9.16406 13.8327C9.16406 13.7243 9.18906 13.616 9.23073 13.516C9.2724 13.416 9.33073 13.3243 9.40573 13.241C9.48906 13.166 9.58073 13.1077 9.68073 13.066C9.88073 12.9827 10.1141 12.9827 10.3141 13.066C10.4141 13.1077 10.5057 13.166 10.5891 13.241C10.6641 13.3243 10.7224 13.416 10.7641 13.516C10.8057 13.616 10.8307 13.7243 10.8307 13.8327C10.8307 13.941 10.8057 14.0493 10.7641 14.1493Z" fill="#050505"/>
</svg>
