<svg width="12" height="12" viewBox="0 0 12 12" fill="none" xmlns="http://www.w3.org/2000/svg">
<path d="M8.4175 7.82008C8.7525 7.60008 9.1925 7.84008 9.1925 8.24008V8.88508C9.1925 9.52008 8.6975 10.2001 8.1025 10.4001L6.5075 10.9301C6.2275 11.0251 5.7725 11.0251 5.4975 10.9301L3.9025 10.4001C3.3025 10.2001 2.8125 9.52008 2.8125 8.88508V8.23508C2.8125 7.84008 3.2525 7.60008 3.5825 7.81508L4.6125 8.48508C5.0075 8.75008 5.5075 8.88008 6.0075 8.88008C6.5075 8.88008 7.0075 8.75008 7.4025 8.48508L8.4175 7.82008Z" fill="#AEAEAE"/>
<path d="M9.98781 3.2293L6.99281 1.2643C6.45281 0.909297 5.56281 0.909297 5.02281 1.2643L2.01281 3.2293C1.04781 3.8543 1.04781 5.2693 2.01281 5.8993L2.81281 6.4193L5.02281 7.8593C5.56281 8.2143 6.45281 8.2143 6.99281 7.8593L9.18781 6.4193L9.87281 5.9693V7.4993C9.87281 7.7043 10.0428 7.8743 10.2478 7.8743C10.4528 7.8743 10.6228 7.7043 10.6228 7.4993V5.0393C10.8228 4.3943 10.6178 3.6443 9.98781 3.2293Z" fill="#AEAEAE"/>
</svg>
