<svg width="16" height="16" viewBox="0 0 16 16" fill="none" xmlns="http://www.w3.org/2000/svg">
<path d="M2.153 5.58442C2.15391 5.46567 2.19856 5.34726 2.29302 5.25423C2.47565 5.07437 2.77564 5.07666 2.95551 5.25928L6.99928 9.36527C7.29698 9.66755 7.78447 9.67127 8.08675 9.37357L12.1927 5.32979C12.3754 5.14993 12.6754 5.15222 12.8552 5.33485C13.0351 5.51748 13.0328 5.81747 12.8502 5.99733L8.74418 10.0411C8.423 10.3574 7.99038 10.5354 7.53414 10.5319C7.07791 10.5284 6.64801 10.3501 6.33175 10.0227L2.28797 5.91671C2.20119 5.82229 2.15209 5.70317 2.153 5.58442Z" fill="#292D32"/>
</svg>
