<svg width="22" height="22" viewBox="0 0 22 22" fill="none" xmlns="http://www.w3.org/2000/svg">
<path d="M18.901 7.74616C17.9385 3.51116 14.2444 1.60449 10.9994 1.60449C10.9994 1.60449 10.9994 1.60449 10.9902 1.60449C7.75436 1.60449 4.05102 3.50199 3.08852 7.73699C2.01602 12.467 4.91269 16.4728 7.53436 18.9937C8.50602 19.9287 9.75269 20.3962 10.9994 20.3962C12.246 20.3962 13.4927 19.9287 14.4552 18.9937C17.0769 16.4728 19.9735 12.4762 18.901 7.74616ZM10.9994 12.3387C9.40436 12.3387 8.11186 11.0462 8.11186 9.45116C8.11186 7.85616 9.40436 6.56366 10.9994 6.56366C12.5944 6.56366 13.8869 7.85616 13.8869 9.45116C13.8869 11.0462 12.5944 12.3387 10.9994 12.3387Z" fill="white"/>
</svg>
