<svg width="45" height="46" viewBox="0 0 45 46" fill="none" xmlns="http://www.w3.org/2000/svg">
<circle cx="22.5" cy="22.5195" r="22.5" fill="white"/>
<path d="M21.999 17.3965C20.7726 17.3965 19.5965 17.8837 18.7293 18.7508C17.8622 19.618 17.375 20.7941 17.375 22.0205C17.375 23.2468 17.8622 24.423 18.7293 25.2901C19.5965 26.1573 20.7726 26.6445 21.999 26.6445C23.2254 26.6445 24.4015 26.1573 25.2687 25.2901C26.1358 24.423 26.623 23.2468 26.623 22.0205C26.623 20.7941 26.1358 19.618 25.2687 18.7508C24.4015 17.8837 23.2254 17.3965 21.999 17.3965ZM21.999 25.0235C21.2023 25.0235 20.4382 24.707 19.8749 24.1436C19.3115 23.5803 18.995 22.8162 18.995 22.0195C18.995 21.2228 19.3115 20.4587 19.8749 19.8953C20.4382 19.332 21.2023 19.0155 21.999 19.0155C22.7957 19.0155 23.5598 19.332 24.1231 19.8953C24.6865 20.4587 25.003 21.2228 25.003 22.0195C25.003 22.8162 24.6865 23.5803 24.1231 24.1436C23.5598 24.707 22.7957 25.0235 21.999 25.0235Z" fill="#252525"/>
<path d="M26.8046 18.3044C27.3999 18.3044 27.8826 17.8218 27.8826 17.2264C27.8826 16.6311 27.3999 16.1484 26.8046 16.1484C26.2092 16.1484 25.7266 16.6311 25.7266 17.2264C25.7266 17.8218 26.2092 18.3044 26.8046 18.3044Z" fill="#252525"/>
<path d="M30.5349 16.1304C30.3034 15.5326 29.9496 14.9897 29.4962 14.5365C29.0428 14.0832 28.4998 13.7297 27.9019 13.4984C27.2022 13.2358 26.4631 13.0938 25.7159 13.0784C24.7529 13.0364 24.4479 13.0244 22.0059 13.0244C19.5639 13.0244 19.2509 13.0244 18.2959 13.0784C17.5493 13.093 16.8107 13.235 16.1119 13.4984C15.5138 13.7294 14.9707 14.0829 14.5172 14.5361C14.0638 14.9894 13.7101 15.5324 13.4789 16.1304C13.2162 16.83 13.0745 17.5693 13.0599 18.3164C13.0169 19.2784 13.0039 19.5834 13.0039 22.0264C13.0039 24.4684 13.0039 24.7794 13.0599 25.7364C13.0749 26.4844 13.2159 27.2224 13.4789 27.9234C13.7108 28.5212 14.0648 29.064 14.5183 29.5172C14.9719 29.9704 15.515 30.324 16.1129 30.5554C16.8103 30.8286 17.5493 30.9808 18.2979 31.0054C19.2609 31.0474 19.5659 31.0604 22.0079 31.0604C24.4499 31.0604 24.7629 31.0604 25.7179 31.0054C26.465 30.9902 27.2041 30.8485 27.9039 30.5864C28.5017 30.3546 29.0445 30.0007 29.4979 29.5474C29.9512 29.094 30.3051 28.5512 30.5369 27.9534C30.7999 27.2534 30.9409 26.5154 30.9559 25.7674C30.9989 24.8054 31.0119 24.5004 31.0119 22.0574C31.0119 19.6144 31.0119 19.3044 30.9559 18.3474C30.9443 17.5897 30.8018 16.8397 30.5349 16.1304ZM29.3169 25.6624C29.3105 26.2387 29.2053 26.8097 29.0059 27.3504C28.8557 27.7393 28.6258 28.0924 28.331 28.3871C28.0361 28.6818 27.6829 28.9115 27.2939 29.0614C26.7591 29.2599 26.1943 29.3651 25.6239 29.3724C24.6739 29.4164 24.4059 29.4274 21.9699 29.4274C19.5319 29.4274 19.2829 29.4274 18.3149 29.3724C17.7448 29.3654 17.1802 29.2602 16.6459 29.0614C16.2556 28.9124 15.9009 28.6831 15.6048 28.3884C15.3087 28.0936 15.0777 27.74 14.9269 27.3504C14.7304 26.8155 14.6252 26.2513 14.6159 25.6814C14.5729 24.7314 14.5629 24.4634 14.5629 22.0274C14.5629 19.5904 14.5629 19.3414 14.6159 18.3724C14.6224 17.7964 14.7276 17.2258 14.9269 16.6854C15.2319 15.8964 15.8569 15.2754 16.6459 14.9734C17.1805 14.7756 17.7449 14.6704 18.3149 14.6624C19.2659 14.6194 19.5329 14.6074 21.9699 14.6074C24.4069 14.6074 24.6569 14.6074 25.6239 14.6624C26.1943 14.6693 26.7593 14.7745 27.2939 14.9734C27.6828 15.1237 28.036 15.3536 28.3309 15.6484C28.6257 15.9433 28.8556 16.2965 29.0059 16.6854C29.2025 17.2204 29.3076 17.7846 29.3169 18.3544C29.3599 19.3054 29.3709 19.5724 29.3709 22.0094C29.3709 24.4454 29.3709 24.7074 29.3279 25.6634H29.3169V25.6624Z" fill="#252525"/>
</svg>
