<svg width="45" height="46" viewBox="0 0 45 46" fill="none" xmlns="http://www.w3.org/2000/svg">
<circle cx="22.5" cy="22.5195" r="22.5" fill="white"/>
<path d="M14.9849 17.2168C16.1933 17.2168 17.1729 16.2372 17.1729 15.0288C17.1729 13.8204 16.1933 12.8408 14.9849 12.8408C13.7765 12.8408 12.7969 13.8204 12.7969 15.0288C12.7969 16.2372 13.7765 17.2168 14.9849 17.2168Z" fill="#252525"/>
<path d="M19.2358 18.8742V31.0132H23.0047V25.0102C23.0047 23.4262 23.3027 21.8922 25.2667 21.8922C27.2037 21.8922 27.2277 23.7032 27.2277 25.1102V31.0142H30.9988V24.3572C30.9988 21.0872 30.2948 18.5742 26.4728 18.5742C24.6378 18.5742 23.4078 19.5812 22.9047 20.5342H22.8537V18.8742H19.2358ZM13.0938 18.8742H16.8687V31.0132H13.0938V18.8742Z" fill="#252525"/>
</svg>
