<svg width="23" height="22" viewBox="0 0 23 22" fill="none" xmlns="http://www.w3.org/2000/svg">
<path d="M9.34948 10.6518C9.32198 10.6518 9.30365 10.6518 9.27615 10.6518C9.23031 10.6427 9.16615 10.6427 9.11115 10.6518C6.45281 10.5693 4.44531 8.47933 4.44531 5.9035C4.44531 3.28183 6.58115 1.146 9.20281 1.146C11.8245 1.146 13.9603 3.28183 13.9603 5.9035C13.9511 8.47933 11.9345 10.5693 9.37698 10.6518C9.36781 10.6518 9.35865 10.6518 9.34948 10.6518ZM9.20281 2.521C7.34198 2.521 5.82031 4.04266 5.82031 5.9035C5.82031 7.73683 7.25031 9.21266 9.07448 9.27683C9.12948 9.26766 9.24865 9.26766 9.36781 9.27683C11.1645 9.19433 12.5761 7.7185 12.5853 5.9035C12.5853 4.04266 11.0636 2.521 9.20281 2.521Z" fill="#696969"/>
<path d="M16.1143 10.7707C16.0868 10.7707 16.0593 10.7707 16.0318 10.7615C15.656 10.7982 15.271 10.5323 15.2343 10.1565C15.1976 9.78067 15.4268 9.4415 15.8026 9.39567C15.9126 9.3865 16.0318 9.3865 16.1326 9.3865C17.471 9.31317 18.516 8.21317 18.516 6.86567C18.516 5.47234 17.3885 4.34484 15.9951 4.34484C15.6193 4.354 15.3076 4.04234 15.3076 3.6665C15.3076 3.29067 15.6193 2.979 15.9951 2.979C18.1401 2.979 19.891 4.72984 19.891 6.87484C19.891 8.98317 18.241 10.6882 16.1418 10.7707C16.1326 10.7707 16.1235 10.7707 16.1143 10.7707Z" fill="#696969"/>
<path d="M9.35714 20.6707C7.56047 20.6707 5.75464 20.2123 4.3888 19.2957C3.11464 18.4523 2.41797 17.2973 2.41797 16.0415C2.41797 14.7857 3.11464 13.6215 4.3888 12.769C7.1388 10.9448 11.5938 10.9448 14.3255 12.769C15.5905 13.6123 16.2963 14.7673 16.2963 16.0232C16.2963 17.279 15.5996 18.4432 14.3255 19.2957C12.9505 20.2123 11.1538 20.6707 9.35714 20.6707ZM5.14964 13.924C4.26964 14.5107 3.79297 15.2623 3.79297 16.0507C3.79297 16.8298 4.2788 17.5815 5.14964 18.159C7.43214 19.6898 11.2821 19.6898 13.5646 18.159C14.4446 17.5723 14.9213 16.8207 14.9213 16.0323C14.9213 15.2532 14.4355 14.5015 13.5646 13.924C11.2821 12.4023 7.43214 12.4023 5.14964 13.924Z" fill="#696969"/>
<path d="M17.7645 19.0208C17.4436 19.0208 17.1595 18.8008 17.0953 18.4708C17.022 18.095 17.2603 17.7375 17.627 17.655C18.2045 17.5358 18.7361 17.3067 19.1486 16.9859C19.6711 16.5917 19.9553 16.0967 19.9553 15.5742C19.9553 15.0517 19.6711 14.5567 19.1578 14.1717C18.7545 13.86 18.2503 13.64 17.6545 13.5025C17.2878 13.42 17.0495 13.0534 17.132 12.6775C17.2145 12.3109 17.5811 12.0725 17.957 12.155C18.7453 12.3292 19.4328 12.6409 19.992 13.0717C20.8445 13.7134 21.3303 14.6208 21.3303 15.5742C21.3303 16.5275 20.8353 17.435 19.9828 18.0858C19.4145 18.5258 18.6995 18.8467 17.9111 19.0025C17.8561 19.0208 17.8103 19.0208 17.7645 19.0208Z" fill="#696969"/>
</svg>
