<svg width="23" height="22" viewBox="0 0 23 22" fill="none" xmlns="http://www.w3.org/2000/svg">
<path d="M19.7435 10.3585V6.4535C19.7435 2.75934 18.8818 1.8335 15.4168 1.8335H8.48682C5.02182 1.8335 4.16016 2.75934 4.16016 6.4535V16.7752C4.16016 19.2135 5.4985 19.791 7.121 18.0493L7.13015 18.0402C7.88181 17.2427 9.02765 17.3068 9.67848 18.1776L10.6043 19.4152" stroke="#696969" stroke-width="1.5" stroke-linecap="round" stroke-linejoin="round"/>
<path d="M8.28516 6.4165H15.6185" stroke="#696969" stroke-width="1.5" stroke-linecap="round" stroke-linejoin="round"/>
<path d="M9.20312 10.0835H14.7031" stroke="#696969" stroke-width="1.5" stroke-linecap="round" stroke-linejoin="round"/>
<path d="M17.6478 13.5394L14.4029 16.7844C14.2745 16.9128 14.1554 17.1511 14.1279 17.3253L13.9537 18.5628C13.8895 19.0119 14.2012 19.3236 14.6504 19.2594L15.8879 19.0853C16.062 19.0578 16.3095 18.9386 16.4287 18.8103L19.6737 15.5653C20.2329 15.0061 20.4987 14.3553 19.6737 13.5303C18.8579 12.7144 18.207 12.9803 17.6478 13.5394Z" stroke="#696969" stroke-width="1.5" stroke-miterlimit="10" stroke-linecap="round" stroke-linejoin="round"/>
<path d="M17.1797 14.0068C17.4547 14.9968 18.2247 15.7668 19.2147 16.0418" stroke="#696969" stroke-width="1.5" stroke-miterlimit="10" stroke-linecap="round" stroke-linejoin="round"/>
</svg>
