<svg width="23" height="22" viewBox="0 0 23 22" fill="none" xmlns="http://www.w3.org/2000/svg">
<path d="M1.87109 20.1665H22.0378" stroke="#696969" stroke-width="1.5" stroke-miterlimit="10" stroke-linecap="round" stroke-linejoin="round"/>
<path d="M19.0859 20.1758V16.0874" stroke="#696969" stroke-width="1.5" stroke-miterlimit="10" stroke-linecap="round" stroke-linejoin="round"/>
<path d="M19.1026 9.98242C17.9843 9.98242 17.0859 10.8808 17.0859 11.9991V14.0799C17.0859 15.1982 17.9843 16.0966 19.1026 16.0966C20.2209 16.0966 21.1193 15.1982 21.1193 14.0799V11.9991C21.1193 10.8808 20.2209 9.98242 19.1026 9.98242Z" stroke="#696969" stroke-width="1.5" stroke-miterlimit="10" stroke-linecap="round" stroke-linejoin="round"/>
<path d="M2.87891 20.1668V5.52763C2.87891 3.68513 3.79562 2.75928 5.61979 2.75928H11.3306C13.1548 2.75928 14.0623 3.68513 14.0623 5.52763V20.1668" stroke="#696969" stroke-width="1.5" stroke-miterlimit="10" stroke-linecap="round" stroke-linejoin="round"/>
<path d="M6.26953 7.5625H10.807" stroke="#696969" stroke-width="1.5" stroke-miterlimit="10" stroke-linecap="round" stroke-linejoin="round"/>
<path d="M6.26953 11H10.807" stroke="#696969" stroke-width="1.5" stroke-miterlimit="10" stroke-linecap="round" stroke-linejoin="round"/>
<path d="M8.51562 20.1665V16.729" stroke="#696969" stroke-width="1.5" stroke-miterlimit="10" stroke-linecap="round" stroke-linejoin="round"/>
</svg>
