<svg width="45" height="45" viewBox="0 0 45 45" fill="none" xmlns="http://www.w3.org/2000/svg">
<circle cx="22.5" cy="22.5" r="22.5" fill="white"/>
<circle cx="22.5" cy="22.5" r="22" stroke="black" stroke-opacity="0.1"/>
<path d="M13.9981 22C13.274 21.1292 12.834 20.0108 12.834 18.7917C12.834 16.0233 15.0982 13.75 17.8757 13.75H22.459C25.2273 13.75 27.5007 16.0233 27.5007 18.7917C27.5007 21.56 25.2365 23.8333 22.459 23.8333H20.1673" stroke="#292D32" stroke-width="1.5" stroke-linecap="round" stroke-linejoin="round"/>
<path d="M30.0025 22.0003C30.7267 22.8712 31.1667 23.9895 31.1667 25.2087C31.1667 27.977 28.9025 30.2503 26.125 30.2503H21.5417C18.7733 30.2503 16.5 27.977 16.5 25.2087C16.5 22.4403 18.7642 20.167 21.5417 20.167H23.8333" stroke="#292D32" stroke-width="1.5" stroke-linecap="round" stroke-linejoin="round"/>
</svg>
