<svg width="45" height="46" viewBox="0 0 45 46" fill="none" xmlns="http://www.w3.org/2000/svg">
<circle cx="22.5" cy="22.5195" r="22.5" fill="white"/>
<path d="M29.633 18.0161C29.646 18.1911 29.646 18.3651 29.646 18.5391C29.646 23.8641 25.593 30.0001 18.186 30.0001C15.904 30.0001 13.784 29.3391 12 28.1911C12.324 28.2281 12.636 28.2411 12.973 28.2411C14.786 28.2455 16.5476 27.6392 17.974 26.5201C17.1334 26.5049 16.3186 26.2275 15.6432 25.7268C14.9679 25.2261 14.4658 24.527 14.207 23.7271C14.456 23.7641 14.706 23.7891 14.968 23.7891C15.329 23.7891 15.692 23.7391 16.029 23.6521C15.1168 23.4679 14.2965 22.9734 13.7076 22.2528C13.1188 21.5321 12.7977 20.6297 12.799 19.6991V19.6491C13.336 19.9481 13.959 20.1351 14.619 20.1601C14.0661 19.7927 13.6127 19.2941 13.2993 18.7089C12.986 18.1236 12.8223 17.4699 12.823 16.8061C12.823 16.0581 13.022 15.3721 13.371 14.7741C14.3831 16.0191 15.6455 17.0376 17.0763 17.7637C18.5072 18.4898 20.0746 18.9073 21.677 18.9891C21.615 18.6891 21.577 18.3781 21.577 18.0661C21.5767 17.537 21.6807 17.0131 21.8831 16.5243C22.0854 16.0355 22.3821 15.5914 22.7562 15.2173C23.1303 14.8432 23.5744 14.5465 24.0632 14.3442C24.5521 14.1418 25.076 14.0378 25.605 14.0381C26.765 14.0381 27.812 14.5241 28.548 15.3101C29.4498 15.1357 30.3145 14.8065 31.104 14.3371C30.8034 15.2679 30.1738 16.0572 29.333 16.5571C30.1328 16.4659 30.9144 16.2555 31.652 15.9331C31.1011 16.7362 30.4185 17.4404 29.633 18.0161Z" fill="#252525"/>
</svg>
