<svg width="24" height="24" viewBox="0 0 24 24" fill="none" xmlns="http://www.w3.org/2000/svg">
<path d="M16 2H8C4 2 2 4 2 8V21C2 21.55 2.45 22 3 22H16C20 22 22 20 22 16V8C22 4 20 2 16 2Z" stroke="#646464" stroke-width="1.5" stroke-linecap="round" stroke-linejoin="round"/>
<path d="M12.9127 7.8382L7.72272 13.0282C7.52272 13.2282 7.33273 13.6182 7.29273 13.8982L7.01273 15.8782C6.91273 16.5982 7.41272 17.0982 8.13272 16.9982L10.1127 16.7182C10.3927 16.6782 10.7827 16.4882 10.9827 16.2882L16.1727 11.0982C17.0627 10.2082 17.4927 9.1682 16.1727 7.8482C14.8527 6.5182 13.8127 6.9382 12.9127 7.8382Z" stroke="#646464" stroke-width="1.5" stroke-miterlimit="10" stroke-linecap="round" stroke-linejoin="round"/>
<path d="M12.1719 8.57812C12.6119 10.1481 13.8419 11.3881 15.4219 11.8281" stroke="#646464" stroke-width="1.5" stroke-miterlimit="10" stroke-linecap="round" stroke-linejoin="round"/>
</svg>
