<svg width="22" height="22" viewBox="0 0 22 22" fill="none" xmlns="http://www.w3.org/2000/svg">
<path d="M13.7526 20.8529H8.2526C3.2751 20.8529 1.14844 18.7262 1.14844 13.7487V8.2487C1.14844 3.2712 3.2751 1.14453 8.2526 1.14453H13.7526C18.7301 1.14453 20.8568 3.2712 20.8568 8.2487V13.7487C20.8568 18.7262 18.7301 20.8529 13.7526 20.8529ZM8.2526 2.51953C4.02677 2.51953 2.52344 4.02286 2.52344 8.2487V13.7487C2.52344 17.9745 4.02677 19.4779 8.2526 19.4779H13.7526C17.9784 19.4779 19.4818 17.9745 19.4818 13.7487V8.2487C19.4818 4.02286 17.9784 2.51953 13.7526 2.51953H8.2526Z" fill="#646464"/>
<path d="M6.72236 13.9705C6.5757 13.9705 6.42903 13.9247 6.3007 13.8238C5.9982 13.5947 5.9432 13.1638 6.17236 12.8613L8.35403 10.0288C8.61986 9.68966 8.99569 9.46966 9.42653 9.41466C9.8482 9.35966 10.279 9.47883 10.6182 9.74466L12.2957 11.0647C12.3599 11.1197 12.424 11.1197 12.4699 11.1105C12.5065 11.1105 12.5707 11.0922 12.6257 11.0188L14.7432 8.28716C14.9724 7.98466 15.4124 7.92966 15.7057 8.16799C16.0082 8.39716 16.0632 8.828 15.8249 9.1305L13.7074 11.8622C13.4415 12.2013 13.0657 12.4213 12.6349 12.4672C12.204 12.5222 11.7824 12.403 11.4432 12.1372L9.76569 10.8172C9.70153 10.7622 9.6282 10.7622 9.59153 10.7713C9.55486 10.7713 9.4907 10.7897 9.4357 10.863L7.25403 13.6955C7.13486 13.8788 6.9332 13.9705 6.72236 13.9705Z" fill="#646464"/>
</svg>
