<svg width="22" height="22" viewBox="0 0 22 22" fill="none" xmlns="http://www.w3.org/2000/svg">
<path d="M14.8434 1.83203H7.16177C3.8251 1.83203 1.83594 3.8212 1.83594 7.15786V14.8304C1.83594 18.1762 3.8251 20.1654 7.16177 20.1654H14.8343C18.1709 20.1654 20.1601 18.1762 20.1601 14.8395V7.15786C20.1693 3.8212 18.1801 1.83203 14.8434 1.83203ZM15.8243 9.1287L13.7068 11.8604C13.4409 12.1995 13.0651 12.4195 12.6343 12.4654C12.2034 12.5204 11.7818 12.4012 11.4426 12.1354L9.7651 10.8154C9.70094 10.7604 9.6276 10.7604 9.59094 10.7695C9.55427 10.7695 9.4901 10.7879 9.4351 10.8612L7.25344 13.6937C7.11594 13.8679 6.91427 13.9595 6.7126 13.9595C6.56594 13.9595 6.41927 13.9137 6.29094 13.8129C5.98844 13.5837 5.93344 13.1529 6.1626 12.8504L8.34427 10.0179C8.6101 9.6787 8.98594 9.4587 9.41677 9.4037C9.83844 9.3487 10.2693 9.46786 10.6084 9.7337L12.2859 11.0537C12.3501 11.1087 12.4143 11.1087 12.4601 11.0995C12.4968 11.0995 12.5609 11.0812 12.6159 11.0079L14.7334 8.2762C14.9626 7.9737 15.4026 7.9187 15.6959 8.15703C15.9984 8.40453 16.0534 8.83536 15.8243 9.1287Z" fill="#252525"/>
</svg>
