<svg width="35" height="35" viewBox="0 0 35 35" fill="none" xmlns="http://www.w3.org/2000/svg">
<path d="M35 17.5C35 19.7981 34.5473 22.0738 33.6679 24.197C32.7884 26.3202 31.4994 28.2493 29.8744 29.8744C28.2493 31.4994 26.3202 32.7884 24.197 33.6679C22.0738 34.5473 19.7981 35 17.5 35C15.2019 35 12.9262 34.5473 10.803 33.6679C8.67984 32.7884 6.75066 31.4994 5.12563 29.8744C3.50061 28.2493 2.21156 26.3202 1.33211 24.197C0.45265 22.0738 -2.00909e-07 19.7981 0 17.5L7.875 17.5C7.875 18.764 8.12396 20.0156 8.60766 21.1833C9.09136 22.3511 9.80033 23.4121 10.6941 24.3059C11.5879 25.1997 12.6489 25.9086 13.8167 26.3923C14.9844 26.876 16.236 27.125 17.5 27.125C18.764 27.125 20.0156 26.876 21.1833 26.3923C22.3511 25.9086 23.4121 25.1997 24.3059 24.3059C25.1997 23.4121 25.9086 22.3511 26.3923 21.1833C26.876 20.0156 27.125 18.764 27.125 17.5H35Z" fill="#050505"/>
<path d="M26.9776 17.4732C26.9776 16.2245 26.7317 14.9881 26.2538 13.8345C25.776 12.6809 25.0756 11.6327 24.1927 10.7498C23.3097 9.86684 22.2616 9.16646 21.108 8.68862C19.9543 8.21078 18.7179 7.96484 17.4693 7.96484C16.2206 7.96484 14.9842 8.21078 13.8306 8.68862C12.677 9.16646 11.6288 9.86684 10.7459 10.7498C9.86293 11.6327 9.16255 12.6809 8.68472 13.8345C8.20688 14.9881 7.96094 16.2245 7.96094 17.4732L17.4693 17.4732H26.9776Z" fill="#050505"/>
</svg>
