<svg width="22" height="22" viewBox="0 0 22 22" fill="none" xmlns="http://www.w3.org/2000/svg">
<path d="M16.5 17.2896H15.8033C15.07 17.2896 14.3733 17.5737 13.86 18.0871L12.2925 19.6362C11.5775 20.3421 10.4133 20.3421 9.69835 19.6362L8.13083 18.0871C7.6175 17.5737 6.91167 17.2896 6.1875 17.2896H5.5C3.97833 17.2896 2.75 16.0704 2.75 14.5671V4.56622C2.75 3.06289 3.97833 1.84375 5.5 1.84375H16.5C18.0217 1.84375 19.25 3.06289 19.25 4.56622V14.5671C19.25 16.0613 18.0217 17.2896 16.5 17.2896Z" stroke="#646464" stroke-width="1.5" stroke-miterlimit="10" stroke-linecap="round" stroke-linejoin="round"/>
<path d="M11.003 9.16617C12.1826 9.16617 13.1389 8.20991 13.1389 7.03032C13.1389 5.85074 12.1826 4.89453 11.003 4.89453C9.82345 4.89453 8.86719 5.85074 8.86719 7.03032C8.86719 8.20991 9.82345 9.16617 11.003 9.16617Z" stroke="#646464" stroke-width="1.5" stroke-linecap="round" stroke-linejoin="round"/>
<path d="M14.6693 14.3555C14.6693 12.7055 13.0284 11.3672 11.0026 11.3672C8.97677 11.3672 7.33594 12.7055 7.33594 14.3555" stroke="#646464" stroke-width="1.5" stroke-linecap="round" stroke-linejoin="round"/>
</svg>
