<svg width="20" height="20" viewBox="0 0 20 20" fill="none" xmlns="http://www.w3.org/2000/svg">
<path d="M4.61763 16.2657C4.1093 16.2657 3.6343 16.0907 3.29263 15.7657C2.8593 15.3573 2.65097 14.7407 2.72597 14.074L3.0343 11.374C3.09263 10.8657 3.40097 10.1907 3.7593 9.82398L10.601 2.58232C12.3093 0.773983 14.0926 0.723983 15.901 2.43232C17.7093 4.14065 17.7593 5.92398 16.051 7.73232L9.2093 14.974C8.8593 15.349 8.2093 15.699 7.70097 15.7823L5.01763 16.2407C4.87597 16.249 4.75097 16.2657 4.61763 16.2657ZM13.276 2.42398C12.6343 2.42398 12.076 2.82398 11.5093 3.42398L4.66763 10.674C4.50097 10.849 4.3093 11.2657 4.27597 11.5073L3.96763 14.2073C3.9343 14.4823 4.00097 14.7073 4.15097 14.849C4.30097 14.9907 4.52597 15.0407 4.80097 14.999L7.4843 14.5407C7.72596 14.499 8.12597 14.2823 8.29263 14.1073L15.1343 6.86565C16.1676 5.76565 16.5426 4.74898 15.0343 3.33232C14.3676 2.69065 13.7926 2.42398 13.276 2.42398Z" fill="#252525"/>
<path d="M14.4536 9.12601C14.437 9.12601 14.412 9.12601 14.3953 9.12601C11.7953 8.86768 9.70362 6.89268 9.30362 4.30935C9.25362 3.96768 9.48695 3.65101 9.82862 3.59268C10.1703 3.54268 10.487 3.77601 10.5453 4.11768C10.862 6.13435 12.4953 7.68435 14.5286 7.88435C14.8703 7.91768 15.1203 8.22601 15.087 8.56768C15.0453 8.88435 14.7703 9.12601 14.4536 9.12601Z" fill="#252525"/>
<path d="M17.5 18.957H2.5C2.15833 18.957 1.875 18.6737 1.875 18.332C1.875 17.9904 2.15833 17.707 2.5 17.707H17.5C17.8417 17.707 18.125 17.9904 18.125 18.332C18.125 18.6737 17.8417 18.957 17.5 18.957Z" fill="#252525"/>
</svg>
