<svg width="22" height="22" viewBox="0 0 22 22" fill="none" xmlns="http://www.w3.org/2000/svg">
<path d="M19.25 5.48177C16.1975 5.17927 13.1267 5.02344 10.065 5.02344C8.25 5.02344 6.435 5.1151 4.62 5.29844L2.75 5.48177" stroke="white" stroke-width="1.5" stroke-linecap="round" stroke-linejoin="round"/>
<path d="M7.78906 4.55453L7.99073 3.3537C8.1374 2.48286 8.2474 1.83203 9.79656 1.83203H12.1982C13.7474 1.83203 13.8666 2.51953 14.0041 3.36286L14.2057 4.55453" stroke="white" stroke-width="1.5" stroke-linecap="round" stroke-linejoin="round"/>
<path d="M17.2771 8.37891L16.6813 17.6097C16.5804 19.0489 16.4979 20.1672 13.9404 20.1672H8.05542C5.49792 20.1672 5.41542 19.0489 5.31458 17.6097L4.71875 8.37891" stroke="white" stroke-width="1.5" stroke-linecap="round" stroke-linejoin="round"/>
<path d="M9.46875 15.125H12.5212" stroke="white" stroke-width="1.5" stroke-linecap="round" stroke-linejoin="round"/>
<path d="M8.71094 11.457H13.2943" stroke="white" stroke-width="1.5" stroke-linecap="round" stroke-linejoin="round"/>
</svg>
