<svg width="20" height="20" viewBox="0 0 20 20" fill="none" xmlns="http://www.w3.org/2000/svg">
<path fill-rule="evenodd" clip-rule="evenodd" d="M3.20573 10.0013C3.20573 8.32726 3.20595 7.04645 3.25688 6.0532C3.30849 5.04691 3.40995 4.41884 3.57173 4.01437C3.71291 3.66143 3.88838 3.50162 4.16038 3.39585C4.49431 3.26599 5.0006 3.20964 5.83073 3.20964C6.64223 3.20964 7.20843 3.26108 7.60415 3.34902C7.99862 3.43668 8.1678 3.54844 8.24653 3.62717C8.31673 3.69737 8.37623 3.80168 8.41328 4.024C8.45372 4.26662 8.45573 4.56667 8.45573 5.0013C8.45573 5.3925 8.77286 5.70964 9.16406 5.70964C9.55527 5.70964 9.8724 5.3925 9.8724 5.0013L9.8724 4.96583V4.96581C9.87246 4.57724 9.87252 4.16216 9.81068 3.7911C9.74356 3.38843 9.59473 2.9719 9.24826 2.62543C8.91032 2.28749 8.45451 2.08676 7.91147 1.96609C7.3697 1.84569 6.68589 1.79297 5.83073 1.79297C4.99419 1.79297 4.25048 1.84079 3.64691 2.07551C2.98141 2.33431 2.53188 2.79951 2.25639 3.48823C2.00151 4.12543 1.89464 4.95569 1.84208 5.98065C1.78906 7.0144 1.78906 8.33117 1.78906 9.98091V9.98106V10.0013V10.0215V10.0217C1.78906 11.6714 1.78906 12.9882 1.84208 14.022C1.89464 15.0469 2.00151 15.8772 2.25639 16.5144C2.53188 17.2031 2.98141 17.6683 3.64691 17.9271C4.25048 18.1618 4.99419 18.2096 5.83073 18.2096C6.68589 18.2096 7.3697 18.1569 7.91147 18.0365C8.45451 17.9158 8.91032 17.7151 9.24826 17.3772C9.59473 17.0307 9.74356 16.6142 9.81068 16.2115C9.87252 15.8404 9.87246 15.4254 9.8724 15.0368V15.0368L9.8724 15.0013C9.8724 14.6101 9.55527 14.293 9.16406 14.293C8.77286 14.293 8.45573 14.6101 8.45573 15.0013C8.45573 15.4359 8.45372 15.736 8.41328 15.9786C8.37623 16.2009 8.31673 16.3052 8.24653 16.3754C8.1678 16.4542 7.99862 16.5659 7.60415 16.6536C7.20843 16.7415 6.64223 16.793 5.83073 16.793C5.0006 16.793 4.49431 16.7366 4.16038 16.6068C3.88838 16.501 3.71291 16.3412 3.57173 15.9882C3.40995 15.5838 3.30849 14.9557 3.25688 13.9494C3.20595 12.9562 3.20573 11.6753 3.20573 10.0013ZM14.6649 6.1671C14.3883 5.89048 13.9398 5.89048 13.6632 6.1671C13.3866 6.44372 13.3866 6.89221 13.6632 7.16884L15.7873 9.29297H9.16406C8.77286 9.29297 8.45573 9.6101 8.45573 10.0013C8.45573 10.3925 8.77286 10.7096 9.16406 10.7096H15.7873L13.6632 12.8338C13.3866 13.1104 13.3866 13.5589 13.6632 13.8355C13.9398 14.1121 14.3883 14.1121 14.6649 13.8355L17.9983 10.5022C18.2749 10.2255 18.2749 9.77706 17.9983 9.50043L14.6649 6.1671Z" fill="#252525"/>
</svg>
