<svg width="20" height="20" viewBox="0 0 20 20" fill="none" xmlns="http://www.w3.org/2000/svg">
<path d="M10.0153 17.1086C8.07359 17.1086 6.13192 16.8003 4.29026 16.1836C3.59026 15.9419 3.05692 15.4503 2.82359 14.8086C2.58192 14.1669 2.66526 13.4586 3.04859 12.8253L4.00692 11.2336C4.20692 10.9003 4.39026 10.2336 4.39026 9.84193V7.43359C4.39026 4.33359 6.91526 1.80859 10.0153 1.80859C13.1153 1.80859 15.6403 4.33359 15.6403 7.43359V9.84193C15.6403 10.2253 15.8236 10.9003 16.0236 11.2419L16.9736 12.8253C17.3319 13.4253 17.3986 14.1503 17.1569 14.8086C16.9153 15.4669 16.3903 15.9669 15.7319 16.1836C13.8986 16.8003 11.9569 17.1086 10.0153 17.1086ZM10.0153 3.05859C7.60692 3.05859 5.64026 5.01693 5.64026 7.43359V9.84193C5.64026 10.4503 5.39026 11.3503 5.08192 11.8753L4.12359 13.4669C3.94026 13.7753 3.89026 14.1003 3.99859 14.3753C4.09859 14.6586 4.34859 14.8753 4.69026 14.9919C8.17359 16.1586 11.8653 16.1586 15.3486 14.9919C15.6486 14.8919 15.8819 14.6669 15.9903 14.3669C16.0986 14.0669 16.0736 13.7419 15.9069 13.4669L14.9486 11.8753C14.6319 11.3336 14.3903 10.4419 14.3903 9.83359V7.43359C14.3903 5.01693 12.4319 3.05859 10.0153 3.05859Z" fill="#252525"/>
<path d="M11.5639 3.28438C11.5056 3.28438 11.4472 3.27604 11.3889 3.25937C11.1472 3.19271 10.9139 3.14271 10.6889 3.10938C9.98058 3.01771 9.29725 3.06771 8.65558 3.25937C8.42225 3.33437 8.17225 3.25937 8.01391 3.08437C7.85558 2.90937 7.80558 2.65938 7.89725 2.43438C8.23891 1.55938 9.07225 0.984375 10.0222 0.984375C10.9722 0.984375 11.8056 1.55104 12.1472 2.43438C12.2306 2.65938 12.1889 2.90937 12.0306 3.08437C11.9056 3.21771 11.7306 3.28438 11.5639 3.28438Z" fill="#252525"/>
<path d="M10.0156 19.0078C9.19063 19.0078 8.39062 18.6745 7.80729 18.0911C7.22396 17.5078 6.89062 16.7078 6.89062 15.8828H8.14063C8.14063 16.3745 8.34062 16.8578 8.69062 17.2078C9.04062 17.5578 9.52396 17.7578 10.0156 17.7578C11.049 17.7578 11.8906 16.9161 11.8906 15.8828H13.1406C13.1406 17.6078 11.7406 19.0078 10.0156 19.0078Z" fill="#252525"/>
</svg>
