<svg width="20" height="20" viewBox="0 0 20 20" fill="none" xmlns="http://www.w3.org/2000/svg">
<path d="M15.8359 7.29297C14.1109 7.29297 12.7109 5.89297 12.7109 4.16797C12.7109 2.44297 14.1109 1.04297 15.8359 1.04297C17.5609 1.04297 18.9609 2.44297 18.9609 4.16797C18.9609 5.89297 17.5609 7.29297 15.8359 7.29297ZM15.8359 2.29297C14.8026 2.29297 13.9609 3.13464 13.9609 4.16797C13.9609 5.2013 14.8026 6.04297 15.8359 6.04297C16.8693 6.04297 17.7109 5.2013 17.7109 4.16797C17.7109 3.13464 16.8693 2.29297 15.8359 2.29297Z" fill="#252525"/>
<path d="M10.0026 11.457H5.83594C5.49427 11.457 5.21094 11.1737 5.21094 10.832C5.21094 10.4904 5.49427 10.207 5.83594 10.207H10.0026C10.3443 10.207 10.6276 10.4904 10.6276 10.832C10.6276 11.1737 10.3443 11.457 10.0026 11.457Z" fill="#252525"/>
<path d="M13.3359 14.793H5.83594C5.49427 14.793 5.21094 14.5096 5.21094 14.168C5.21094 13.8263 5.49427 13.543 5.83594 13.543H13.3359C13.6776 13.543 13.9609 13.8263 13.9609 14.168C13.9609 14.5096 13.6776 14.793 13.3359 14.793Z" fill="#252525"/>
<path d="M12.4974 18.9596H7.4974C2.9724 18.9596 1.03906 17.0263 1.03906 12.5013V7.5013C1.03906 2.9763 2.9724 1.04297 7.4974 1.04297H11.6641C12.0057 1.04297 12.2891 1.3263 12.2891 1.66797C12.2891 2.00964 12.0057 2.29297 11.6641 2.29297H7.4974C3.65573 2.29297 2.28906 3.65964 2.28906 7.5013V12.5013C2.28906 16.343 3.65573 17.7096 7.4974 17.7096H12.4974C16.3391 17.7096 17.7057 16.343 17.7057 12.5013V8.33464C17.7057 7.99297 17.9891 7.70964 18.3307 7.70964C18.6724 7.70964 18.9557 7.99297 18.9557 8.33464V12.5013C18.9557 17.0263 17.0224 18.9596 12.4974 18.9596Z" fill="#252525"/>
</svg>
