<svg width="45" height="45" viewBox="0 0 45 45" fill="none" xmlns="http://www.w3.org/2000/svg">
<rect width="45" height="45" rx="10" fill="white"/>
<rect width="45" height="45" rx="10" fill="#FF0000" fill-opacity="0.2"/>
<path d="M28.5429 26.3101C28.2383 26.4001 27.791 26.4102 27.3115 26.3406C26.7969 26.266 26.2719 26.1087 25.756 25.8769C26.6761 25.743 27.3898 25.7843 28.0003 26.0006C28.1449 26.0518 28.3825 26.1888 28.5429 26.3101ZM23.4095 25.4662C23.3721 25.4764 23.3352 25.486 23.2985 25.4962C23.0509 25.5636 22.8101 25.6293 22.5779 25.6878L22.2649 25.7672C21.6353 25.9265 20.9916 26.0893 20.3557 26.2831C20.5974 25.7004 20.8219 25.1112 21.0417 24.5352C21.2044 24.1089 21.3706 23.6733 21.5425 23.2434C21.6297 23.3874 21.7207 23.5314 21.8154 23.6759C22.2468 24.3329 22.789 24.9403 23.4095 25.4662ZM21.8079 18.8954C21.8488 19.6144 21.6936 20.3061 21.4661 20.9696C21.1858 20.1491 21.0551 19.2431 21.4056 18.5116C21.4954 18.3241 21.5691 18.2238 21.6168 18.1715C21.6906 18.2854 21.7876 18.5401 21.8079 18.8954ZM18.5209 28.0034C18.3634 28.2851 18.2027 28.5489 18.0379 28.7979C17.6403 29.3972 16.99 30.0388 16.6559 30.0388C16.623 30.0388 16.5832 30.0335 16.5251 29.9721C16.4877 29.9329 16.4817 29.9047 16.4835 29.8664C16.4948 29.6461 16.7867 29.2537 17.2095 28.8899C17.5934 28.5598 18.0272 28.2664 18.5209 28.0034ZM29.6066 26.3413C29.5556 25.6074 28.3202 25.1366 28.308 25.1322C27.8304 24.9629 27.3116 24.8807 26.722 24.8807C26.0908 24.8807 25.4103 24.972 24.5364 25.1762C23.7587 24.6249 23.087 23.9348 22.5851 23.1708C22.3635 22.8332 22.1643 22.4963 21.9906 22.1672C22.4146 21.1534 22.7964 20.0633 22.727 18.8424C22.6711 17.8635 22.2296 17.2059 21.6293 17.2059C21.2175 17.2059 20.8629 17.5109 20.5746 18.1133C20.0603 19.1867 20.1955 20.5601 20.9763 22.199C20.6951 22.8594 20.4338 23.5441 20.1809 24.2069C19.8663 25.0311 19.5421 25.8814 19.1768 26.6903C18.1521 27.0958 17.3103 27.5874 16.6088 28.1911C16.1492 28.5858 15.5951 29.1892 15.5635 29.8192C15.5481 30.1159 15.6498 30.3879 15.8565 30.6059C16.0761 30.8374 16.3521 30.9593 16.6554 30.9596C17.6574 30.9596 18.6218 29.5829 18.8047 29.3068C19.1729 28.7518 19.5176 28.1327 19.8553 27.4187C20.7058 27.1113 21.6121 26.8819 22.4906 26.6601L22.8052 26.5802C23.0417 26.5201 23.2876 26.4536 23.5397 26.3846C23.8065 26.3124 24.081 26.2376 24.36 26.1666C25.2621 26.7403 26.2321 27.1144 27.1782 27.2518C27.9751 27.3677 28.6827 27.3004 29.1618 27.0507C29.5929 26.8262 29.6166 26.4797 29.6066 26.3413ZM31.5472 32.6518C31.5472 33.9958 30.3626 34.0786 30.1236 34.0813H14.8405C13.5014 34.0813 13.4208 32.8886 13.4182 32.6518L13.418 12.3478C13.418 11.0024 14.6048 10.9209 14.8404 10.9182H25.1644L25.1699 10.9236V14.9525C25.1699 15.761 25.6587 17.2918 27.5099 17.2918H31.5127L31.5471 17.3261L31.5472 32.6518ZM30.5982 16.3735H27.5106C26.1718 16.3735 26.0908 15.1873 26.089 14.9526V11.8457L30.5982 16.3735ZM32.4654 32.6518V16.9473L26.089 10.5444V10.5146H26.0585L25.5464 10H14.8406C14.031 10 12.5 10.4908 12.5 12.3482V32.6522C12.5 33.4642 12.9893 35 14.8406 35H30.1251C30.9345 34.9998 32.4654 34.5089 32.4654 32.6518Z" fill="#FF0000"/>
</svg>
