<svg width="22" height="22" viewBox="0 0 22 22" fill="none" xmlns="http://www.w3.org/2000/svg">
<path d="M20.1693 15.3459V4.2817C20.1693 3.1817 19.2709 2.36586 18.1801 2.45753H18.1251C16.2001 2.62253 13.2759 3.60336 11.6443 4.63003L11.4884 4.73086C11.2226 4.89586 10.7826 4.89586 10.5168 4.73086L10.2876 4.59336C8.65594 3.57586 5.74094 2.6042 3.81594 2.44836C2.7251 2.3567 1.83594 3.1817 1.83594 4.27253V15.3459C1.83594 16.2259 2.55094 17.0509 3.43094 17.1609L3.69677 17.1975C5.68594 17.4634 8.75677 18.4717 10.5168 19.4342L10.5534 19.4525C10.8009 19.59 11.1951 19.59 11.4334 19.4525C13.1934 18.4809 16.2734 17.4634 18.2718 17.1975L18.5743 17.1609C19.4543 17.0509 20.1693 16.2259 20.1693 15.3459Z" stroke="#292D32" stroke-width="1.5" stroke-linecap="round" stroke-linejoin="round"/>
<path d="M11 5.03125V18.7813" stroke="#292D32" stroke-width="1.5" stroke-linecap="round" stroke-linejoin="round"/>
<path d="M7.10156 7.78125H5.03906" stroke="#292D32" stroke-width="1.5" stroke-linecap="round" stroke-linejoin="round"/>
<path d="M7.78906 10.5312H5.03906" stroke="#292D32" stroke-width="1.5" stroke-linecap="round" stroke-linejoin="round"/>
</svg>
