<svg width="45" height="45" viewBox="0 0 45 45" fill="none" xmlns="http://www.w3.org/2000/svg">
<rect width="45" height="45" rx="10" fill="white"/>
<rect width="45" height="45" rx="10" fill="#FF0000" fill-opacity="0.2"/>
<g clip-path="url(#clip0_1637_61676)">
<path d="M14.0016 20.4V19.6H13.2016V20.4H14.0016ZM20.4016 20.4V19.6H19.6016V20.4H20.4016ZM31.6016 15.6H32.4016V15.2686L32.1673 15.0343L31.6016 15.6ZM26.8016 10.8L27.3673 10.2343L27.1329 10H26.8016V10.8ZM14.0016 21.2H15.6016V19.6H14.0016V21.2ZM14.8016 27.6V23.6H13.2016V27.6H14.8016ZM14.8016 23.6V20.4H13.2016V23.6H14.8016ZM15.6016 22.8H14.0016V24.4H15.6016V22.8ZM16.4016 22C16.4016 22.4418 16.0434 22.8 15.6016 22.8V24.4C16.9271 24.4 18.0016 23.3255 18.0016 22H16.4016ZM15.6016 21.2C16.0434 21.2 16.4016 21.5582 16.4016 22H18.0016C18.0016 20.6745 16.9271 19.6 15.6016 19.6V21.2ZM20.4016 21.2H22.0016V19.6H20.4016V21.2ZM21.2016 27.6V23.6H19.6016V27.6H21.2016ZM21.2016 23.6V20.4H19.6016V23.6H21.2016ZM22.0016 22.8H20.4016V24.4H22.0016V22.8ZM22.8016 22C22.8016 22.4418 22.4434 22.8 22.0016 22.8V24.4C23.327 24.4 24.4016 23.3255 24.4016 22H22.8016ZM22.0016 21.2C22.4434 21.2 22.8016 21.5582 22.8016 22H24.4016C24.4016 20.6745 23.327 19.6 22.0016 19.6V21.2ZM27.6016 19.6V27.6H29.2016V19.6H27.6016ZM26.0016 21.2H30.8016V19.6H26.0016V21.2ZM13.2016 18V12.4H11.6016V18H13.2016ZM30.8016 15.6V18H32.4016V15.6H30.8016ZM14.0016 11.6H26.8016V10H14.0016V11.6ZM26.2358 11.3657L31.0358 16.1657L32.1673 15.0343L27.3673 10.2343L26.2358 11.3657ZM13.2016 12.4C13.2016 11.9582 13.5597 11.6 14.0016 11.6V10C12.6761 10 11.6016 11.0745 11.6016 12.4H13.2016ZM11.6016 29.2V31.6H13.2016V29.2H11.6016ZM14.0016 34H30.0016V32.4H14.0016V34ZM32.4016 31.6V29.2H30.8016V31.6H32.4016ZM30.0016 34C31.327 34 32.4016 32.9254 32.4016 31.6H30.8016C30.8016 32.0418 30.4433 32.4 30.0016 32.4V34ZM11.6016 31.6C11.6016 32.9254 12.6761 34 14.0016 34V32.4C13.5597 32.4 13.2016 32.0418 13.2016 31.6H11.6016Z" fill="#FF0000"/>
</g>
<defs>
<clipPath id="clip0_1637_61676">
<rect width="24" height="24" fill="white" transform="translate(10 10)"/>
</clipPath>
</defs>
</svg>
