<svg width="20" height="20" viewBox="0 0 20 20" fill="none" xmlns="http://www.w3.org/2000/svg">
<path d="M9.9974 18.9596C5.05573 18.9596 1.03906 14.943 1.03906 10.0013C1.03906 5.05964 5.05573 1.04297 9.9974 1.04297C14.9391 1.04297 18.9557 5.05964 18.9557 10.0013C18.9557 14.943 14.9391 18.9596 9.9974 18.9596ZM9.9974 2.29297C5.7474 2.29297 2.28906 5.7513 2.28906 10.0013C2.28906 14.2513 5.7474 17.7096 9.9974 17.7096C14.2474 17.7096 17.7057 14.2513 17.7057 10.0013C17.7057 5.7513 14.2474 2.29297 9.9974 2.29297Z" fill="#252525"/>
<path d="M13.0948 13.2745C12.9865 13.2745 12.8781 13.2495 12.7781 13.1828L10.1948 11.6411C9.55312 11.2578 9.07812 10.4161 9.07812 9.67448V6.25781C9.07812 5.91615 9.36146 5.63281 9.70312 5.63281C10.0448 5.63281 10.3281 5.91615 10.3281 6.25781V9.67448C10.3281 9.97448 10.5781 10.4161 10.8365 10.5661L13.4198 12.1078C13.7198 12.2828 13.8115 12.6661 13.6365 12.9661C13.5115 13.1661 13.3031 13.2745 13.0948 13.2745Z" fill="#252525"/>
</svg>
