<svg width="22" height="22" viewBox="0 0 22 22" fill="none" xmlns="http://www.w3.org/2000/svg">
<path d="M14.8434 1.83203H7.16177C3.8251 1.83203 1.83594 3.8212 1.83594 7.15786V14.8304C1.83594 18.1762 3.8251 20.1654 7.16177 20.1654H14.8343C18.1709 20.1654 20.1601 18.1762 20.1601 14.8395V7.15786C20.1693 3.8212 18.1801 1.83203 14.8434 1.83203ZM14.4401 14.4362H7.5651C7.18927 14.4362 6.8776 14.1245 6.8776 13.7487C6.8776 13.3729 7.18927 13.0612 7.5651 13.0612H14.4401C14.8159 13.0612 15.1276 13.3729 15.1276 13.7487C15.1276 14.1245 14.8159 14.4362 14.4401 14.4362ZM14.4401 8.9362H7.5651C7.18927 8.9362 6.8776 8.62453 6.8776 8.2487C6.8776 7.87286 7.18927 7.5612 7.5651 7.5612H14.4401C14.8159 7.5612 15.1276 7.87286 15.1276 8.2487C15.1276 8.62453 14.8159 8.9362 14.4401 8.9362Z" fill="#050505"/>
</svg>
