<svg width="45" height="45" viewBox="0 0 45 45" fill="none" xmlns="http://www.w3.org/2000/svg">
<rect width="45" height="45" rx="10" fill="white"/>
<rect width="45" height="45" rx="10" fill="#009026" fill-opacity="0.2"/>
<g clip-path="url(#clip0_1637_61637)">
<path d="M18.5126 10L12.2969 16.5617V34H31.6971V10H18.5126ZM17.9658 12.7592V15.6674H15.2104L17.9658 12.7592ZM30.1964 32.5001H13.7983V17.1673H19.4657V11.4999H30.198V32.5001H30.1964Z" fill="#009026"/>
<path d="M21.4575 21.276H21.8325V19.9258H17.2113V21.276H17.7742C17.9284 21.276 18.0812 21.318 18.2454 21.4043C18.4004 21.486 18.5478 21.638 18.6822 21.8511L20.9114 25.4695L18.6669 28.6846C18.5447 28.8595 18.4332 29.0062 18.3324 29.1245C18.2461 29.2261 18.1583 29.3094 18.0751 29.3697C18.0002 29.4231 17.9238 29.4606 17.8406 29.4827C17.7436 29.5087 17.6252 29.5217 17.4878 29.5217H17.0234V30.8726H21.1764V29.8982L21.1344 29.524H20.7595C20.4166 29.524 20.2684 29.4804 20.2065 29.4522C20.2065 29.4117 20.2142 29.3643 20.2279 29.3101C20.2462 29.2429 20.2699 29.1757 20.3005 29.1085C20.3333 29.0344 20.3669 28.9649 20.4059 28.8954C20.441 28.8313 20.4754 28.774 20.512 28.7205L21.7721 26.8571L23.1231 29.0283C23.175 29.1154 23.217 29.1879 23.2445 29.249C23.272 29.3078 23.2827 29.3414 23.2858 29.3552L23.2957 29.4377C23.2957 29.4377 23.2102 29.524 22.8184 29.524H22.3663V30.8742H26.9737V29.524H26.4169C26.307 29.524 26.1878 29.4842 26.0626 29.4086C25.961 29.3475 25.7953 29.2108 25.5921 28.9405L23.0933 24.9242L25.0247 22.1397C25.15 21.958 25.2645 21.806 25.3699 21.6861C25.4654 21.5777 25.5578 21.4875 25.6464 21.4196C25.7166 21.3669 25.7854 21.331 25.8541 21.3111C25.9335 21.2882 26.0267 21.2768 26.1298 21.2768H26.63V19.9265H22.755V20.9018L22.797 21.2768H23.172C23.2674 21.2768 23.353 21.2813 23.4324 21.292C23.5019 21.3004 23.5431 21.3142 23.5645 21.3142C23.5645 21.3906 23.5447 21.4769 23.5004 21.5708C23.4431 21.6991 23.366 21.835 23.2705 21.9794L22.2403 23.5457L21.2574 21.9572C21.1848 21.8427 21.1276 21.7464 21.0878 21.6708C21.052 21.6021 21.0245 21.5425 21.0061 21.4944C20.9931 21.4593 20.984 21.428 20.9809 21.4081C20.9763 21.3783 20.9741 21.347 20.9573 21.3402C20.9588 21.3394 20.9893 21.3211 21.081 21.3027C21.1703 21.2836 21.2826 21.276 21.4575 21.276Z" fill="#009026"/>
</g>
<defs>
<clipPath id="clip0_1637_61637">
<rect width="24" height="24" fill="white" transform="translate(10 10)"/>
</clipPath>
</defs>
</svg>
